<?xml version="1.0" encoding="UTF-8"?>
<svg width="394px" height="468px" viewBox="0 0 394 468" version="1.1" xmlns="http://www.w3.org/2000/svg" xmlns:xlink="http://www.w3.org/1999/xlink">
    <!-- Generator: Sketch 55.2 (78181) - https://sketchapp.com -->
    <title>Group 28</title>
    <desc>Created with Sketch.</desc>
    <g id="Design" stroke="none" stroke-width="1" fill="none" fill-rule="evenodd">
        <g id="About-me" transform="translate(-759.000000, -1081.000000)">
            <g id="Group-28" transform="translate(760.000000, 1082.000000)">
                <path d="M47.0358,303.3246 L38.4578,304.5656 L34.7538,306.9746 L34.4718,312.2756 L35.8308,314.2556 L37.9198,314.8746 L42.4858,314.6146 L43.0818,314.0556 L45.5928,311.0556 L46.9528,311.1556 L47.8058,311.8556 L48.4448,312.7356 L49.1238,313.3946 L53.1178,314.9936 L54.7268,316.2606 L55.3728,318.3656 L56.3498,320.5766 L58.5468,322.1336 L62.3338,323.5446 L64.1408,323.6386 L71.9628,322.1076 L73.7698,321.4086 L75.4448,320.2436 L76.4968,318.5926 L76.2898,315.9546 L74.3578,314.5806 L70.1078,313.3946 L69.0878,312.5356 L68.4418,311.6556 L67.9448,310.7966 L64.1408,306.1136 L62.4828,304.8326 L60.2288,304.3326 L50.4668,304.0586 L49.1238,303.3246 L47.4578,303.1716 L47.0358,303.3246 Z M77.9648,319.3776 L77.6908,319.7356 L77.6728,319.7596 L77.8808,321.0026 L78.3948,322.4276 L79.2068,323.4056 L80.2258,324.1046 L81.3118,324.5246 L85.3308,324.6966 L86.4768,321.3686 L86.5178,321.2476 L86.4338,321.2756 L84.1388,320.3696 L81.9638,318.7956 L79.6828,317.9076 L77.9648,319.3776 Z M21.6098,328.3226 L11.1348,334.7846 L10.0658,336.2736 L10.4718,338.9246 L11.5818,340.6776 L14.9308,343.6236 L16.1568,345.5156 L17.5158,348.1166 L19.0658,350.4256 L20.8968,351.4186 L26.6648,352.7326 L28.9608,352.6266 L33.1798,351.0476 L34.7788,351.2266 L38.7568,355.0516 L44.8968,358.0866 L47.6818,361.0276 L48.7758,361.5236 L49.8698,361.3326 L51.1798,360.4976 L54.8428,360.1006 L56.4088,359.2656 L57.5608,357.5826 L60.5848,351.8636 L62.0028,350.9816 L66.2538,351.4186 L67.9198,352.1026 L73.5208,356.9736 L75.5768,358.2326 L77.6898,358.9346 L86.8478,359.1996 L89.0848,358.5236 L90.2778,356.9736 L91.3138,357.7086 L91.5128,358.9756 L91.4638,360.6506 L91.7368,362.6376 L92.5578,364.5436 L92.9628,365.0516 L95.0048,365.1216 L94.9988,365.0606 L94.8718,363.8506 L94.4928,362.8166 L93.5298,362.0006 L93.1358,358.8556 L93.0728,356.9956 L93.2628,356.4996 L93.3728,355.9526 L93.7348,355.2956 L93.2778,352.9056 L93.2468,352.8396 L93.2458,352.8386 L92.1178,353.1446 L88.8028,352.9776 L86.7898,353.6336 L84.7928,352.5996 L79.4878,353.3346 L77.0518,352.6266 L75.5438,350.5846 L73.5378,344.9586 L72.1958,342.4096 L67.9938,338.7436 L63.0468,336.7386 L53.3008,335.7146 L53.3008,334.7046 L53.9798,334.0806 L55.7118,332.9036 L56.7808,332.4716 L55.8358,330.0916 L54.3778,328.0836 L52.7378,326.5596 L51.2128,325.6816 L48.9498,325.3626 L21.6098,328.3226 Z M70.5708,326.4596 L65.1678,329.0336 L73.2228,336.5926 L75.6768,338.0536 L77.2008,338.3056 L80.4248,337.9216 L81.9908,338.0536 L86.2008,339.9256 L89.8478,340.5846 L91.0838,337.3556 L91.2098,336.6976 L91.2258,334.7486 L90.5148,332.6796 L90.1838,332.1996 L87.5108,329.1506 L87.4418,328.9966 L87.4378,328.9886 L85.0488,326.9656 L82.3888,326.1536 L73.2728,325.7016 L70.5708,326.4596 Z M18.0788,357.5306 L16.5718,358.7756 L0.1298,364.0996 L0.1248,364.1006 L1.0058,370.3626 L0.5848,374.3926 L0.5118,378.1776 L1.9538,382.2556 L4.4268,384.9676 L5.1538,385.3026 L7.5108,386.3916 L10.7628,386.7736 L15.5828,386.0186 L15.8778,384.4856 L15.6148,382.4306 L15.8038,380.5576 L16.9198,379.4076 L18.4148,379.0336 L20.0458,378.9376 L24.0978,378.0276 L26.6128,377.8796 L29.2128,378.3036 L41.6638,382.4436 L43.5898,383.7086 L44.1158,385.8346 L43.9478,387.6356 L44.1158,389.3296 L45.6318,391.1306 L46.8948,391.6866 L58.9458,391.5366 L61.2298,390.8036 L65.8708,387.1636 L78.4898,380.8086 L83.5418,376.8346 L87.5518,371.3576 L88.1208,369.7416 L88.8788,365.9566 L88.9318,365.2756 L86.6978,363.9676 L84.7098,363.7426 L84.0628,364.3436 L82.3138,366.9716 L78.7928,366.6806 L78.1378,366.4166 L77.1188,365.5816 L74.6568,365.2506 L73.5208,364.8606 L72.6188,363.8676 L71.4748,361.3326 L70.8028,360.3126 L69.3358,359.3846 L66.9578,358.4716 L64.7618,358.3656 L63.7918,359.8086 L63.2448,363.0536 L61.8778,364.6626 L51.9328,368.9436 L49.4718,369.2996 L45.5928,368.1886 L41.4828,368.1886 L39.3108,367.2636 L36.0468,364.3646 L26.1178,361.5236 L19.6708,357.3456 L18.0788,357.5306 Z" id="Fill-1" fill="#F9F9F9"></path>
                <path d="M37.9194,314.8743 L42.4854,314.6143 L43.0824,314.0553 L45.5934,311.0563 L46.9524,311.1553 L47.8064,311.8553 L48.4444,312.7353 L49.1244,313.3953 L53.1184,314.9943 L54.7264,316.2603 L55.3724,318.3653 L56.3504,320.5763 L58.5464,322.1343 L62.3344,323.5453 L64.1404,323.6393 L71.9634,322.1073 L73.7704,321.4083 L75.4444,320.2433 L76.4964,318.5923 L76.2894,315.9543 L74.3584,314.5813 L70.1074,313.3953 L69.0874,312.5353 L68.4414,311.6553 L67.9444,310.7963 L64.1404,306.1133 L62.4824,304.8323 L60.2294,304.3323 L50.4664,304.0593 L49.1244,303.3243 L47.4584,303.1713 L47.0354,303.3243 L38.4584,304.5653 L34.7534,306.9743 L34.4724,312.2753 L35.8314,314.2553 L37.9194,314.8743 Z M78.3944,322.4273 L79.2064,323.4053 L80.2264,324.1043 L81.3114,324.5233 L85.3314,324.6963 L86.4764,321.3683 L86.5184,321.2473 L86.4334,321.2743 L84.1394,320.3693 L81.9634,318.7953 L79.6824,317.9073 L77.9654,319.3783 L77.6904,319.7353 L77.6724,319.7593 L77.8804,321.0023 L78.3944,322.4273 Z M94.9984,365.0613 L94.8724,363.8513 L94.4934,362.8163 L93.5304,362.0013 L93.1354,358.8553 L93.0724,356.9963 L93.2624,356.4993 L93.3724,355.9523 L93.7354,355.2963 L93.2774,352.9053 L93.2464,352.8403 L93.2454,352.8383 L92.1184,353.1443 L88.8034,352.9783 L86.7894,353.6343 L84.7924,352.6003 L79.4884,353.3353 L77.0514,352.6263 L75.5434,350.5843 L73.5384,344.9583 L72.1954,342.4093 L67.9944,338.7443 L63.0464,336.7383 L53.3004,335.7153 L53.3004,334.7053 L53.9804,334.0803 L55.7114,332.9033 L56.7814,332.4723 L55.8364,330.0913 L54.3774,328.0833 L52.7374,326.5603 L51.2124,325.6823 L48.9494,325.3623 L21.6094,328.3223 L11.1344,334.7843 L10.0654,336.2733 L10.4714,338.9243 L11.5824,340.6773 L14.9304,343.6243 L16.1574,345.5163 L17.5164,348.1163 L19.0654,350.4253 L20.8974,351.4193 L26.6654,352.7323 L28.9614,352.6263 L33.1794,351.0483 L34.7784,351.2273 L38.7564,355.0523 L44.8974,358.0873 L47.6814,361.0273 L48.7754,361.5233 L49.8694,361.3323 L51.1794,360.4973 L54.8424,360.1003 L56.4084,359.2663 L57.5604,357.5833 L60.5854,351.8633 L62.0024,350.9813 L66.2534,351.4193 L67.9194,352.1033 L73.5214,356.9743 L75.5764,358.2323 L77.6904,358.9353 L86.8474,359.1993 L89.0854,358.5233 L90.2784,356.9743 L91.3144,357.7093 L91.5134,358.9753 L91.4634,360.6493 L91.7374,362.6373 L92.5574,364.5433 L92.9624,365.0513 L95.0044,365.1213 L94.9984,365.0613 Z M82.3894,326.1533 L73.2734,325.7013 L70.5714,326.4603 L65.1684,329.0343 L73.2234,336.5923 L75.6764,338.0543 L77.2014,338.3063 L80.4244,337.9213 L81.9914,338.0543 L86.2014,339.9263 L89.8474,340.5843 L91.0834,337.3553 L91.2094,336.6973 L91.2254,334.7483 L90.5154,332.6803 L90.1834,332.1993 L87.5104,329.1503 L87.4404,328.9963 L87.4374,328.9883 L85.0494,326.9663 L82.3894,326.1533 Z M84.7094,363.7423 L84.0634,364.3443 L82.3144,366.9723 L78.7924,366.6813 L78.1374,366.4163 L77.1184,365.5823 L74.6574,365.2513 L73.5214,364.8603 L72.6184,363.8673 L71.4744,361.3323 L70.8034,360.3123 L69.3364,359.3853 L66.9584,358.4713 L64.7614,358.3653 L63.7924,359.8093 L63.2454,363.0543 L61.8774,364.6623 L51.9334,368.9433 L49.4724,369.3003 L45.5934,368.1883 L41.4824,368.1883 L39.3114,367.2633 L36.0464,364.3643 L26.1184,361.5233 L19.6704,357.3453 L18.0794,357.5303 L16.5714,358.7753 L0.1294,364.1003 L0.1254,364.1013 L1.0064,370.3623 L0.5854,374.3933 L0.5114,378.1783 L1.9534,382.2553 L4.4264,384.9673 L5.1534,385.3033 L7.5104,386.3923 L10.7624,386.7733 L15.5834,386.0193 L15.8774,384.4853 L15.6144,382.4313 L15.8044,380.5573 L16.9194,379.4073 L18.4144,379.0333 L20.0454,378.9373 L24.0974,378.0273 L26.6134,377.8803 L29.2124,378.3043 L41.6634,382.4433 L43.5894,383.7093 L44.1164,385.8353 L43.9474,387.6363 L44.1164,389.3293 L45.6314,391.1303 L46.8944,391.6873 L58.9454,391.5363 L61.2294,390.8043 L65.8714,387.1633 L78.4904,380.8083 L83.5424,376.8353 L87.5524,371.3573 L88.1204,369.7413 L88.8784,365.9563 L88.9324,365.2753 L86.6984,363.9673 L84.7094,363.7423 Z" id="Stroke-2" stroke="#C1C1C1" stroke-linecap="round" stroke-linejoin="round"></path>
                <polygon id="Fill-4" fill="#F9F9F9" points="231.1797 266.0755 230.9907 265.4205 230.5647 264.6705 229.8687 263.1875 227.7697 260.9205 226.4857 258.6185 225.5857 253.6105 225.7277 249.6585 225.5227 248.6945 225.4277 247.7975 224.5597 244.4485 222.8857 244.8425 223.3277 246.0635 223.2647 246.7215 223.1227 247.3705 222.6967 248.1735 222.3017 248.6345 221.8917 248.9075 221.4817 248.9415 221.1337 249.0695 220.0707 249.9065 219.1397 250.2395 216.2977 248.8225 216.0927 248.5315 215.9347 248.1735 216.7077 247.5075 217.1977 246.9345 217.4967 246.3885 218.0977 244.6115 218.8867 242.9365 219.9917 243.0215 220.0237 242.8345 220.0237 242.5175 219.9287 241.9365 219.9127 240.8255 220.4177 239.8335 220.4337 239.2525 220.1647 238.8765 219.3757 237.9865 218.5557 237.4655 218.1447 237.0715 217.2447 235.7285 216.5337 235.1735 214.4297 234.6935 212.0137 233.8985 211.3987 232.7685 211.4777 232.4435 211.6667 232.2215 212.3297 231.6815 212.6767 230.9965 212.8817 229.3705 209.1987 226.3735 208.6297 225.4055 208.8677 223.5975 209.2347 220.7625 209.5367 219.1505 205.1147 217.0115 202.8777 215.3805 202.0397 215.5315 196.3377 215.5385 195.5327 215.8475 195.0747 216.1145 193.2267 219.2185 191.1537 224.3605 190.8067 226.3045 190.2387 227.5385 189.5277 229.2765 188.7857 230.7835 186.7807 232.1695 181.1237 231.8615 177.2797 232.5765 175.4697 233.4185 172.7967 233.9795 172.2797 230.4735 171.6757 227.9495 172.4457 224.5825 174.1347 222.5005 173.6457 221.4815 173.3777 221.1125 173.1717 220.7955 172.9347 220.4955 172.5877 220.1785 172.3037 220.0235 172.0827 219.7835 171.9247 219.4235 171.8147 218.8065 171.6567 218.3005 171.3087 217.5635 171.7987 216.7835 174.9087 215.5565 170.7877 215.1705 169.1407 215.8995 168.6677 215.1705 168.1777 214.7755 167.5627 214.5265 166.8207 214.5185 164.2947 215.9165 162.3467 216.2595 161.3997 216.1825 160.9267 216.4655 160.5947 216.7575 159.1737 219.4755 155.1267 220.0415 152.9017 221.1385 151.3647 222.7325 149.3117 223.7865 144.5707 225.1825 145.8967 227.5125 146.4017 228.2315 147.0227 228.8485 149.2647 229.7385 154.2267 234.0005 153.3117 234.7535 153.7217 236.5845 154.3687 238.4055 154.5277 238.9625 154.5117 239.3635 154.2907 239.6455 153.8647 239.7645 152.1857 238.9625 151.6797 238.8425 151.3327 238.6795 151.0017 238.4315 150.4487 238.5515 149.9597 238.7145 147.5287 241.2955 146.9127 241.9875 148.3177 243.2185 149.8637 243.7845 151.1567 249.9415 155.7587 249.9745 155.0257 251.0955 151.0167 253.0885 147.7837 258.0145 148.2367 259.0625 152.8917 258.4335 153.3447 260.4245 152.0587 261.2265 151.3167 261.5765 150.6537 261.7895 150.3227 262.2845 151.2387 263.8515 154.4957 268.0175 156.7377 271.4575 157.4157 270.4105 159.7267 270.5475 160.7527 270.1215 163.6107 267.1755 166.8777 265.2835 167.0887 265.0275 171.3087 265.9905 172.3357 265.5395 173.8137 263.6475 174.7197 262.9485 177.0447 262.3095 177.9447 261.6105 178.8917 261.1335 180.2977 261.4395 181.5387 262.4115 182.9447 264.8575 183.9017 266.0505 185.8227 267.0725 186.8017 267.2255 188.3117 267.4295 190.7597 266.9625 192.5957 265.5395 194.1117 265.2155 199.8307 268.4015 201.9417 267.8555 204.9357 265.5485 207.1937 265.0275 209.8677 265.9995 211.0197 266.0505 211.9667 265.5985 213.9827 264.1505 215.2557 263.8015 219.6447 264.7295 227.4907 269.4575 230.9107 270.2915 231.2747 269.5165 231.3227 266.9285"></polygon>
                <polygon id="Stroke-5" stroke="#C1C1C1" stroke-linecap="round" stroke-linejoin="round" points="231.1797 266.0755 230.9907 265.4205 230.5647 264.6705 229.8687 263.1875 227.7697 260.9205 226.4857 258.6185 225.5857 253.6105 225.7277 249.6585 225.5227 248.6945 225.4277 247.7975 224.5597 244.4485 222.8857 244.8425 223.3277 246.0635 223.2647 246.7215 223.1227 247.3705 222.6967 248.1735 222.3017 248.6345 221.8917 248.9075 221.4817 248.9415 221.1337 249.0695 220.0707 249.9065 219.1397 250.2395 216.2977 248.8225 216.0927 248.5315 215.9347 248.1735 216.7077 247.5075 217.1977 246.9345 217.4967 246.3885 218.0977 244.6115 218.8867 242.9365 219.9917 243.0215 220.0237 242.8345 220.0237 242.5175 219.9287 241.9365 219.9127 240.8255 220.4177 239.8335 220.4337 239.2525 220.1647 238.8765 219.3757 237.9865 218.5557 237.4655 218.1447 237.0715 217.2447 235.7285 216.5337 235.1735 214.4297 234.6935 212.0137 233.8985 211.3987 232.7685 211.4777 232.4435 211.6667 232.2215 212.3297 231.6815 212.6767 230.9965 212.8817 229.3705 209.1987 226.3735 208.6297 225.4055 208.8677 223.5975 209.2347 220.7625 209.5367 219.1505 205.1147 217.0115 202.8777 215.3805 202.0397 215.5315 196.3377 215.5385 195.5327 215.8475 195.0747 216.1145 193.2267 219.2185 191.1537 224.3605 190.8067 226.3045 190.2387 227.5385 189.5277 229.2765 188.7857 230.7835 186.7807 232.1695 181.1237 231.8615 177.2797 232.5765 175.4697 233.4185 172.7967 233.9795 172.2797 230.4735 171.6757 227.9495 172.4457 224.5825 174.1347 222.5005 173.6457 221.4815 173.3777 221.1125 173.1717 220.7955 172.9347 220.4955 172.5877 220.1785 172.3037 220.0235 172.0827 219.7835 171.9247 219.4235 171.8147 218.8065 171.6567 218.3005 171.3087 217.5635 171.7987 216.7835 174.9087 215.5565 170.7877 215.1705 169.1407 215.8995 168.6677 215.1705 168.1777 214.7755 167.5627 214.5265 166.8207 214.5185 164.2947 215.9165 162.3467 216.2595 161.3997 216.1825 160.9267 216.4655 160.5947 216.7575 159.1737 219.4755 155.1267 220.0415 152.9017 221.1385 151.3647 222.7325 149.3117 223.7865 144.5707 225.1825 145.8967 227.5125 146.4017 228.2315 147.0227 228.8485 149.2647 229.7385 154.2267 234.0005 153.3117 234.7535 153.7217 236.5845 154.3687 238.4055 154.5277 238.9625 154.5117 239.3635 154.2907 239.6455 153.8647 239.7645 152.1857 238.9625 151.6797 238.8425 151.3327 238.6795 151.0017 238.4315 150.4487 238.5515 149.9597 238.7145 147.5287 241.2955 146.9127 241.9875 148.3177 243.2185 149.8637 243.7845 151.1567 249.9415 155.7587 249.9745 155.0257 251.0955 151.0167 253.0885 147.7837 258.0145 148.2367 259.0625 152.8917 258.4335 153.3447 260.4245 152.0587 261.2265 151.3167 261.5765 150.6537 261.7895 150.3227 262.2845 151.2387 263.8515 154.4957 268.0175 156.7377 271.4575 157.4157 270.4105 159.7267 270.5475 160.7527 270.1215 163.6107 267.1755 166.8777 265.2835 167.0887 265.0275 171.3087 265.9905 172.3357 265.5395 173.8137 263.6475 174.7197 262.9485 177.0447 262.3095 177.9447 261.6105 178.8917 261.1335 180.2977 261.4395 181.5387 262.4115 182.9447 264.8575 183.9017 266.0505 185.8227 267.0725 186.8017 267.2255 188.3117 267.4295 190.7597 266.9625 192.5957 265.5395 194.1117 265.2155 199.8307 268.4015 201.9417 267.8555 204.9357 265.5485 207.1937 265.0275 209.8677 265.9995 211.0197 266.0505 211.9667 265.5985 213.9827 264.1505 215.2557 263.8015 219.6447 264.7295 227.4907 269.4575 230.9107 270.2915 231.2747 269.5165 231.3227 266.9285"></polygon>
                <polygon id="Fill-6" fill="#F9F9F9" points="185.8227 267.0725 183.9017 266.0505 182.9447 264.8575 181.5387 262.4115 180.2977 261.4395 178.8917 261.1335 177.9447 261.6105 177.0447 262.3095 174.7187 262.9485 173.8137 263.6475 172.3357 265.5395 171.3087 265.9905 167.0887 265.0275 166.8777 265.2835 163.6107 267.1755 160.7527 270.1215 159.7267 270.5475 157.4157 270.4105 156.7377 271.4575 154.4957 268.0175 151.2387 263.8515 150.3227 262.2845 150.6537 261.7895 151.3167 261.5765 152.0587 261.2265 153.3437 260.4245 152.8917 258.4335 148.2367 259.0625 147.7837 258.0145 151.0167 253.0885 155.0257 251.0945 155.7587 249.9745 151.1567 249.9415 149.8637 243.7845 148.3177 243.2185 146.9127 241.9875 147.5287 241.2955 149.9597 238.7145 150.4487 238.5515 151.0017 238.4315 151.3327 238.6795 151.6797 238.8425 152.1857 238.9625 153.8647 239.7645 154.2907 239.6455 154.5107 239.3635 154.5277 238.9625 154.3687 238.4055 153.7217 236.5845 153.3117 234.7535 154.2267 234.0005 149.2647 229.7385 147.0227 228.8485 146.4017 228.2315 145.8967 227.5125 144.5707 225.1825 141.3497 227.3235 140.2717 226.7935 139.9237 226.0055 139.4817 223.5635 139.2297 223.3155 138.7087 222.9635 134.5507 224.3085 132.3877 225.3455 128.0417 226.5105 125.5307 226.5705 124.8367 226.4415 124.3467 226.2015 123.3467 225.2345 122.1947 225.3195 122.0527 224.0945 123.3317 221.9185 123.8257 219.6805 123.9207 218.1295 124.0477 217.4085 124.1897 217.0055 128.4677 209.8755 126.1787 209.3265 124.0627 210.4335 122.2417 210.0305 121.6577 209.7985 117.1957 207.7805 117.1847 207.7755 107.8147 224.8095 95.3667 243.1075 80.8227 260.8375 77.3417 263.0975 73.4057 263.7495 68.6647 262.6885 67.9687 263.7895 67.3977 265.0375 68.5327 267.8075 70.4717 274.2765 70.8027 276.8085 70.5797 277.3315 70.1077 277.9805 69.6347 278.8845 69.4107 280.1705 69.6427 281.1945 70.2317 281.8705 70.9197 282.4325 73.5127 286.0115 74.2837 287.5165 73.0407 288.5805 71.9797 289.0555 71.2257 289.1425 70.8027 289.0555 67.9687 287.5165 64.5627 286.7415 62.5737 286.8955 61.7037 288.0795 55.3147 290.0315 52.3557 292.0375 53.3007 296.6005 54.2697 296.6345 54.9907 296.5005 55.3647 295.8325 57.3527 295.2715 59.9797 295.2785 62.5657 294.4765 64.4887 293.0335 67.3727 295.0175 69.8337 297.2615 71.5497 300.6685 72.1957 306.1135 73.6627 308.2615 80.7477 310.4355 83.3167 312.2755 84.3947 313.3945 80.9297 313.6755 79.1737 314.4145 77.8477 315.8605 77.5407 317.2535 77.5657 319.1245 77.6727 319.7595 77.6907 319.7355 77.9657 319.3785 79.6817 317.9075 81.9637 318.7955 84.1387 320.3695 86.4337 321.2745 86.5177 321.2475 90.7077 319.9105 94.9057 319.5555 100.3567 318.1355 104.3337 315.4115 107.4277 309.7245 117.9607 311.8575 121.8637 311.7395 125.3997 310.6725 129.5977 308.6575 131.9547 307.9465 135.1717 307.9035 140.2717 301.7515 141.7287 298.8775 143.9497 296.4755 146.8647 294.2365 152.4747 294.1515 155.0057 293.3445 158.9427 289.7625 161.5687 289.7195 166.7407 290.7635 169.1567 290.5355 169.0307 288.9475 169.2987 287.6225 169.3147 287.3005 168.6677 286.3055 171.6087 286.1275 179.4287 282.8215 180.4867 282.1505 180.5817 281.7935 180.5817 281.2925 180.3917 280.5515 180.2187 279.6345 183.7917 273.2365 184.2647 272.4365 186.8017 267.2255"></polygon>
                <polygon id="Stroke-7" stroke="#C1C1C1" stroke-linecap="round" stroke-linejoin="round" points="185.8227 267.0725 183.9017 266.0505 182.9447 264.8575 181.5387 262.4115 180.2977 261.4395 178.8917 261.1335 177.9447 261.6105 177.0447 262.3095 174.7187 262.9485 173.8137 263.6475 172.3357 265.5395 171.3087 265.9905 167.0887 265.0275 166.8777 265.2835 163.6107 267.1755 160.7527 270.1215 159.7267 270.5475 157.4157 270.4105 156.7377 271.4575 154.4957 268.0175 151.2387 263.8515 150.3227 262.2845 150.6537 261.7895 151.3167 261.5765 152.0587 261.2265 153.3437 260.4245 152.8917 258.4335 148.2367 259.0625 147.7837 258.0145 151.0167 253.0885 155.0257 251.0945 155.7587 249.9745 151.1567 249.9415 149.8637 243.7845 148.3177 243.2185 146.9127 241.9875 147.5287 241.2955 149.9597 238.7145 150.4487 238.5515 151.0017 238.4315 151.3327 238.6795 151.6797 238.8425 152.1857 238.9625 153.8647 239.7645 154.2907 239.6455 154.5107 239.3635 154.5277 238.9625 154.3687 238.4055 153.7217 236.5845 153.3117 234.7535 154.2267 234.0005 149.2647 229.7385 147.0227 228.8485 146.4017 228.2315 145.8967 227.5125 144.5707 225.1825 141.3497 227.3235 140.2717 226.7935 139.9237 226.0055 139.4817 223.5635 139.2297 223.3155 138.7087 222.9635 134.5507 224.3085 132.3877 225.3455 128.0417 226.5105 125.5307 226.5705 124.8367 226.4415 124.3467 226.2015 123.3467 225.2345 122.1947 225.3195 122.0527 224.0945 123.3317 221.9185 123.8257 219.6805 123.9207 218.1295 124.0477 217.4085 124.1897 217.0055 128.4677 209.8755 126.1787 209.3265 124.0627 210.4335 122.2417 210.0305 121.6577 209.7985 117.1957 207.7805 117.1847 207.7755 107.8147 224.8095 95.3667 243.1075 80.8227 260.8375 77.3417 263.0975 73.4057 263.7495 68.6647 262.6885 67.9687 263.7895 67.3977 265.0375 68.5327 267.8075 70.4717 274.2765 70.8027 276.8085 70.5797 277.3315 70.1077 277.9805 69.6347 278.8845 69.4107 280.1705 69.6427 281.1945 70.2317 281.8705 70.9197 282.4325 73.5127 286.0115 74.2837 287.5165 73.0407 288.5805 71.9797 289.0555 71.2257 289.1425 70.8027 289.0555 67.9687 287.5165 64.5627 286.7415 62.5737 286.8955 61.7037 288.0795 55.3147 290.0315 52.3557 292.0375 53.3007 296.6005 54.2697 296.6345 54.9907 296.5005 55.3647 295.8325 57.3527 295.2715 59.9797 295.2785 62.5657 294.4765 64.4887 293.0335 67.3727 295.0175 69.8337 297.2615 71.5497 300.6685 72.1957 306.1135 73.6627 308.2615 80.7477 310.4355 83.3167 312.2755 84.3947 313.3945 80.9297 313.6755 79.1737 314.4145 77.8477 315.8605 77.5407 317.2535 77.5657 319.1245 77.6727 319.7595 77.6907 319.7355 77.9657 319.3785 79.6817 317.9075 81.9637 318.7955 84.1387 320.3695 86.4337 321.2745 86.5177 321.2475 90.7077 319.9105 94.9057 319.5555 100.3567 318.1355 104.3337 315.4115 107.4277 309.7245 117.9607 311.8575 121.8637 311.7395 125.3997 310.6725 129.5977 308.6575 131.9547 307.9465 135.1717 307.9035 140.2717 301.7515 141.7287 298.8775 143.9497 296.4755 146.8647 294.2365 152.4747 294.1515 155.0057 293.3445 158.9427 289.7625 161.5687 289.7195 166.7407 290.7635 169.1567 290.5355 169.0307 288.9475 169.2987 287.6225 169.3147 287.3005 168.6677 286.3055 171.6087 286.1275 179.4287 282.8215 180.4867 282.1505 180.5817 281.7935 180.5817 281.2925 180.3917 280.5515 180.2187 279.6345 183.7917 273.2365 184.2647 272.4365 186.8017 267.2255"></polygon>
                <polygon id="Fill-8" fill="#F9F9F9" points="373.8857 212.1028 375.9277 207.3558 376.7907 201.2948 375.3597 197.0178 369.1597 186.9278 368.5187 187.2288 367.8867 188.3488 366.9397 189.2438 364.3927 189.9928 361.7197 190.1688 358.8457 189.7008 353.5837 187.6858 345.5217 186.5448 342.8377 185.2308 340.8277 182.8878 340.2067 180.4018 340.0597 177.4618 339.7007 174.4828 338.4487 171.8638 340.1327 171.7128 345.7847 168.8528 342.4487 166.0238 341.7327 164.9488 341.7007 163.5588 342.1637 162.1718 342.3647 160.6718 341.5117 158.9218 343.2727 157.6438 343.2007 157.5998 342.1277 156.9418 341.8747 155.5498 341.9217 154.3218 341.5437 153.8628 340.9587 153.3878 333.6077 150.0128 332.2817 149.9698 329.3087 150.5058 324.3507 153.0928 323.0827 154.4428 322.8617 155.2218 323.1617 160.2018 318.9467 158.1618 318.3307 158.0488 317.5677 158.0488 317.1257 158.5328 316.2887 159.0608 315.7047 159.1298 315.1677 158.8698 314.7737 158.4468 314.2837 157.6858 313.9677 157.4778 313.7317 157.4348 313.1947 157.9108 312.4687 158.2998 310.0947 159.0348 309.4157 159.0258 309.0057 158.8438 308.8957 158.5848 308.0737 156.3628 307.2527 155.1348 305.4797 153.3358 303.9327 152.0638 303.1437 150.7738 302.7647 150.6968 297.8497 150.7568 296.9967 150.4628 293.8497 148.2898 292.2397 147.6848 291.5297 147.8658 290.9457 148.3938 290.1237 148.9218 289.5247 148.9568 288.7137 148.7318 288.2867 148.3858 288.0197 148.0908 287.3237 146.8788 286.8347 146.4808 283.3097 137.2438 284.2927 135.5358 286.9777 134.2268 290.6607 130.5818 291.1187 129.1498 290.1877 127.7008 289.1237 126.4848 288.3507 125.7818 283.2307 119.6228 278.9517 121.3168 276.9897 121.5248 275.3307 121.9948 275.0947 122.1948 274.9847 122.3858 274.8897 123.1148 274.7947 123.3848 273.3427 125.0608 269.3427 124.7658 268.8377 124.5218 267.9067 123.6888 266.7057 121.9158 266.1637 121.6648 265.8957 121.6118 265.6437 121.9248 265.2647 122.1858 263.2117 122.6808 262.7067 122.9938 262.3437 123.4018 262.0907 123.9668 261.7287 124.6178 261.2707 125.3038 260.7757 125.7988 257.7597 127.6048 256.9867 127.7528 256.4177 127.7878 253.5397 127.3098 253.1607 127.1278 251.9607 126.0768 248.1667 127.9778 255.6287 132.0578 260.3497 135.9088 261.5377 137.4868 262.2487 138.6918 263.7007 142.9558 264.4747 147.2598 263.9067 148.1608 263.4957 149.1388 262.7537 149.8398 262.5647 150.1248 262.8487 150.3938 263.7167 150.8088 267.8267 152.0198 269.8167 153.1108 272.0587 155.8268 268.8057 157.6428 263.8907 159.3288 262.9277 159.3888 261.2707 159.1118 260.6967 158.7748 259.3547 158.8618 254.1827 161.2298 254.0857 161.3408 253.6397 161.8538 254.3787 163.1358 255.1407 165.9428 256.5777 172.1568 256.9567 175.2198 257.9257 175.2948 258.9907 175.4228 260.2547 177.3458 262.4067 181.4838 263.0537 182.0528 263.8747 182.2678 266.9587 181.3288 270.2107 178.5528 273.1687 176.9838 274.4007 177.5098 275.0947 177.9328 275.7887 179.0358 276.5467 180.5878 278.3527 182.5348 279.1097 183.1898 279.7567 184.1718 280.6567 186.8158 281.4467 188.8568 283.5617 191.9378 283.7727 192.3688 283.9137 192.8848 283.7727 194.7428 282.2677 198.7508 278.8727 199.8938 278.5577 200.1438 278.3527 200.3748 278.8577 201.5188 278.9367 202.2318 277.9897 203.6408 277.0997 207.2908 276.9737 208.4938 277.2417 209.0608 278.2887 210.5618 278.8097 211.1888 280.8937 212.1588 282.7257 216.9368 282.6777 218.3268 282.5037 218.8318 282.6777 219.3728 283.0727 219.6638 284.2147 220.1948 284.7197 220.6068 284.9087 221.4128 284.5307 222.4838 284.4977 222.6468 284.4977 222.8778 284.6407 223.2548 284.9247 223.6748 285.7617 224.4548 286.1097 224.5318 286.3297 224.4978 287.0557 223.3838 288.0197 222.5778 288.3347 222.4498 289.3137 222.4928 296.4447 223.9148 302.8907 223.8118 303.9017 223.5118 305.4167 222.3638 308.9107 220.9408 311.9427 221.3098 312.5467 222.3298 312.6577 222.5608 317.4897 229.6188 320.4777 232.4778 322.9087 232.2038 326.8287 232.6838 329.6927 232.0838 330.3077 232.1188 330.8767 232.3318 331.2237 233.1108 331.3187 233.8128 331.3187 234.3428 331.7607 234.5058 332.1707 234.5748 335.7917 233.6928 336.5967 233.9148 337.5907 234.3518 337.9387 234.5818 338.2067 235.0528 338.3807 235.7208 338.4907 237.3718 338.4587 238.2438 337.4487 240.7318 347.3897 242.8508 348.5477 243.7398 348.6177 243.7938 354.6357 243.1158 355.9197 241.9408 358.1727 237.3408 360.1517 235.2668 364.5187 233.3508 366.5507 231.5448 368.9397 227.6578 370.0337 226.3768 374.5597 223.6188 374.8437 222.7668 374.5877 222.2948 373.9907 221.1938 373.0857 217.6488 373.1497 214.6078"></polygon>
                <polygon id="Stroke-9" stroke="#C1C1C1" stroke-linecap="round" stroke-linejoin="round" points="373.8857 212.1028 375.9277 207.3558 376.7907 201.2948 375.3597 197.0178 369.1597 186.9278 368.5187 187.2288 367.8867 188.3488 366.9397 189.2438 364.3927 189.9928 361.7197 190.1688 358.8457 189.7008 353.5837 187.6858 345.5217 186.5448 342.8377 185.2308 340.8277 182.8878 340.2067 180.4018 340.0597 177.4618 339.7007 174.4828 338.4487 171.8638 340.1327 171.7128 345.7847 168.8528 342.4487 166.0238 341.7327 164.9488 341.7007 163.5588 342.1637 162.1718 342.3647 160.6718 341.5117 158.9218 343.2727 157.6438 343.2007 157.5998 342.1277 156.9418 341.8747 155.5498 341.9217 154.3218 341.5437 153.8628 340.9587 153.3878 333.6077 150.0128 332.2817 149.9698 329.3087 150.5058 324.3507 153.0928 323.0827 154.4428 322.8617 155.2218 323.1617 160.2018 318.9467 158.1618 318.3307 158.0488 317.5677 158.0488 317.1257 158.5328 316.2887 159.0608 315.7047 159.1298 315.1677 158.8698 314.7737 158.4468 314.2837 157.6858 313.9677 157.4778 313.7317 157.4348 313.1947 157.9108 312.4687 158.2998 310.0947 159.0348 309.4157 159.0258 309.0057 158.8438 308.8957 158.5848 308.0737 156.3628 307.2527 155.1348 305.4797 153.3358 303.9327 152.0638 303.1437 150.7738 302.7647 150.6968 297.8497 150.7568 296.9967 150.4628 293.8497 148.2898 292.2397 147.6848 291.5297 147.8658 290.9457 148.3938 290.1237 148.9218 289.5247 148.9568 288.7137 148.7318 288.2867 148.3858 288.0197 148.0908 287.3237 146.8788 286.8347 146.4808 283.3097 137.2438 284.2927 135.5358 286.9777 134.2268 290.6607 130.5818 291.1187 129.1498 290.1877 127.7008 289.1237 126.4848 288.3507 125.7818 283.2307 119.6228 278.9517 121.3168 276.9897 121.5248 275.3307 121.9948 275.0947 122.1948 274.9847 122.3858 274.8897 123.1148 274.7947 123.3848 273.3427 125.0608 269.3427 124.7658 268.8377 124.5218 267.9067 123.6888 266.7057 121.9158 266.1637 121.6648 265.8957 121.6118 265.6437 121.9248 265.2647 122.1858 263.2117 122.6808 262.7067 122.9938 262.3437 123.4018 262.0907 123.9668 261.7287 124.6178 261.2707 125.3038 260.7757 125.7988 257.7597 127.6048 256.9867 127.7528 256.4177 127.7878 253.5397 127.3098 253.1607 127.1278 251.9607 126.0768 248.1667 127.9778 255.6287 132.0578 260.3497 135.9088 261.5377 137.4868 262.2487 138.6918 263.7007 142.9558 264.4747 147.2598 263.9067 148.1608 263.4957 149.1388 262.7537 149.8398 262.5647 150.1248 262.8487 150.3938 263.7167 150.8088 267.8267 152.0198 269.8167 153.1108 272.0587 155.8268 268.8057 157.6428 263.8907 159.3288 262.9277 159.3888 261.2707 159.1118 260.6967 158.7748 259.3547 158.8618 254.1827 161.2298 254.0857 161.3408 253.6397 161.8538 254.3787 163.1358 255.1407 165.9428 256.5777 172.1568 256.9567 175.2198 257.9257 175.2948 258.9907 175.4228 260.2547 177.3458 262.4067 181.4838 263.0537 182.0528 263.8747 182.2678 266.9587 181.3288 270.2107 178.5528 273.1687 176.9838 274.4007 177.5098 275.0947 177.9328 275.7887 179.0358 276.5467 180.5878 278.3527 182.5348 279.1097 183.1898 279.7567 184.1718 280.6567 186.8158 281.4467 188.8568 283.5617 191.9378 283.7727 192.3688 283.9137 192.8848 283.7727 194.7428 282.2677 198.7508 278.8727 199.8938 278.5577 200.1438 278.3527 200.3748 278.8577 201.5188 278.9367 202.2318 277.9897 203.6408 277.0997 207.2908 276.9737 208.4938 277.2417 209.0608 278.2887 210.5618 278.8097 211.1888 280.8937 212.1588 282.7257 216.9368 282.6777 218.3268 282.5037 218.8318 282.6777 219.3728 283.0727 219.6638 284.2147 220.1948 284.7197 220.6068 284.9087 221.4128 284.5307 222.4838 284.4977 222.6468 284.4977 222.8778 284.6407 223.2548 284.9247 223.6748 285.7617 224.4548 286.1097 224.5318 286.3297 224.4978 287.0557 223.3838 288.0197 222.5778 288.3347 222.4498 289.3137 222.4928 296.4447 223.9148 302.8907 223.8118 303.9017 223.5118 305.4167 222.3638 308.9107 220.9408 311.9427 221.3098 312.5467 222.3298 312.6577 222.5608 317.4897 229.6188 320.4777 232.4778 322.9087 232.2038 326.8287 232.6838 329.6927 232.0838 330.3077 232.1188 330.8767 232.3318 331.2237 233.1108 331.3187 233.8128 331.3187 234.3428 331.7607 234.5058 332.1707 234.5748 335.7917 233.6928 336.5967 233.9148 337.5907 234.3518 337.9387 234.5818 338.2067 235.0528 338.3807 235.7208 338.4907 237.3718 338.4587 238.2438 337.4487 240.7318 347.3897 242.8508 348.5477 243.7398 348.6177 243.7938 354.6357 243.1158 355.9197 241.9408 358.1727 237.3408 360.1517 235.2668 364.5187 233.3508 366.5507 231.5448 368.9397 227.6578 370.0337 226.3768 374.5597 223.6188 374.8437 222.7668 374.5877 222.2948 373.9907 221.1938 373.0857 217.6488 373.1497 214.6078"></polygon>
                <path d="M195.6596,210.1145 L193.6126,209.8585 L189.2806,210.3645 L186.8536,210.1145 L184.9306,209.3585 L179.8326,205.7705 L177.7926,205.0225 L173.1866,204.6425 L171.5396,204.1375 L165.2656,200.1625 L165.7846,199.4015 L166.4136,199.1505 L166.5526,199.0255 L166.5526,197.7465 L168.0866,197.9955 L168.7296,198.3895 L169.4916,199.0255 L169.4916,197.7465 L171.0346,198.8945 L171.9196,197.1015 L172.6866,194.5435 L173.9666,193.2775 L175.1086,192.8975 L176.2566,191.8595 L177.1566,190.4695 L177.9306,188.6725 L176.2696,187.7845 L175.5086,186.3825 L174.8666,184.9775 L173.7166,183.9415 L175.7646,183.0535 L176.5256,182.9305 L176.0206,181.2565 L175.7706,180.6135 L177.8126,178.4495 L177.0516,174.3755 L173.7366,166.8345 L172.3206,161.9915 L172.1956,157.7715 L173.7366,154.9515 L177.3076,154.3145 L179.9896,155.3315 L180.7576,155.8495 L182.5556,157.7715 L183.9596,157.5165 L185.5016,156.8825 L191.7556,152.9115 L193.4096,151.0075 L194.6876,147.0385 L196.2316,145.6485 L199.5506,143.9735 L199.1686,142.3195 L198.9126,140.0295 L198.5326,137.9765 L197.8906,137.0935 L192.6596,134.7855 L191.0006,134.6635 L189.5976,134.9135 L188.4486,135.5485 L187.4316,136.5865 L186.0266,137.4705 L184.7536,136.7105 L183.5996,135.4315 L182.5886,134.7855 L181.1846,132.4845 L180.9156,121.7575 L180.4106,118.0615 L175.2996,107.7075 L173.1196,105.9365 L177.3456,104.1395 L181.6776,101.4545 L187.3236,96.4385 L187.3056,96.3865 L187.2976,96.3555 L187.1526,95.7505 L186.7586,94.1025 L186.5536,93.5785 L186.5176,93.4085 L176.1676,102.6845 L172.1736,104.4535 L168.1126,104.9885 L165.9996,105.7705 L161.6736,109.5275 L159.3616,110.8425 L155.3586,111.1165 L151.1816,109.8765 L148.8036,106.7995 L150.3276,101.6485 L149.5656,100.3925 L148.5546,101.3675 L142.2896,100.3925 L141.1126,101.8615 L140.3506,105.3315 L139.9446,109.3425 L139.8366,112.4665 L138.8496,117.9925 L134.5496,129.1755 L133.5716,134.4285 L133.2896,136.9625 L131.4826,145.2665 L127.1646,177.7225 L125.1676,181.9985 L125.1676,183.2265 L124.2816,187.9475 L118.1236,206.0665 L117.1846,207.7755 L117.1956,207.7815 L121.6586,209.7985 L122.2426,210.0305 L124.0626,210.4335 L126.1786,209.3265 L128.4676,209.8755 L124.1896,217.0055 L124.0476,217.4085 L123.9206,218.1295 L123.8266,219.6805 L123.3316,221.9185 L122.0526,224.0945 L122.1946,225.3195 L123.3466,225.2345 L124.3466,226.2015 L124.8366,226.4415 L125.5316,226.5705 L128.0416,226.5105 L132.3886,225.3455 L134.5506,224.3085 L138.7086,222.9635 L139.2296,223.3155 L139.4816,223.5635 L139.9236,226.0055 L140.2716,226.7935 L141.3496,227.3235 L144.5706,225.1825 L149.3116,223.7865 L151.3646,222.7325 L152.9016,221.1385 L155.1266,220.0415 L159.1736,219.4755 L160.5946,216.7575 L160.9266,216.4655 L161.3996,216.1825 L162.3466,216.2595 L164.2946,215.9165 L166.8206,214.5185 L167.5626,214.5265 L168.1776,214.7755 L168.6676,215.1705 L169.1406,215.8995 L170.7876,215.1705 L174.9086,215.5565 L171.7986,216.7825 L171.3086,217.5635 L171.6566,218.3005 L171.8146,218.8065 L171.9246,219.4235 L172.0826,219.7835 L172.3036,220.0235 L172.5876,220.1785 L172.9346,220.4955 L173.1716,220.7955 L173.3776,221.1125 L173.6456,221.4815 L174.1346,222.5005 L172.4456,224.5825 L171.6756,227.9485 L172.2796,230.4735 L172.7966,233.9795 L175.4696,233.4185 L177.2796,232.5765 L181.1236,231.8615 L186.7806,232.1695 L188.7856,230.7825 L189.5276,229.2765 L190.2386,227.5385 L190.8066,226.3045 L191.1536,224.3605 L193.2266,219.2185 L195.0746,216.1145 L195.5326,215.8475 L196.3376,215.5385 L202.0396,215.5315 L202.8776,215.3805 L195.6596,210.1145 Z M143.9716,95.8835 L147.4026,94.8745 L149.6896,90.4095 L154.4886,86.4505 L157.3226,82.0695 L158.6486,79.4345 L159.3616,77.2185 L157.2726,77.2185 L157.2726,76.1655 L159.0376,74.8435 L159.0626,72.1775 L158.0186,69.1735 L156.5766,66.8235 L157.1486,66.0165 L157.2226,65.2105 L156.9916,64.3415 L156.5766,63.3485 L153.3776,63.1765 L150.8256,67.3675 L148.4216,72.4465 L143.6156,76.5985 L141.0876,80.7005 L139.0746,85.7005 L138.4446,90.1205 L140.3916,94.4065 L143.9716,95.8835 Z" id="Fill-10" fill="#F9F9F9"></path>
                <path d="M195.6596,210.1145 L193.6126,209.8585 L189.2806,210.3645 L186.8536,210.1145 L184.9306,209.3585 L179.8326,205.7705 L177.7926,205.0225 L173.1866,204.6425 L171.5396,204.1375 L165.2656,200.1625 L165.7846,199.4015 L166.4136,199.1505 L166.5526,199.0255 L166.5526,197.7465 L168.0866,197.9955 L168.7296,198.3895 L169.4916,199.0255 L169.4916,197.7465 L171.0346,198.8945 L171.9196,197.1015 L172.6866,194.5435 L173.9666,193.2775 L175.1086,192.8975 L176.2566,191.8595 L177.1566,190.4695 L177.9306,188.6725 L176.2696,187.7845 L175.5086,186.3825 L174.8666,184.9775 L173.7166,183.9415 L175.7646,183.0535 L176.5256,182.9305 L176.0206,181.2565 L175.7706,180.6135 L177.8126,178.4495 L177.0516,174.3755 L173.7366,166.8345 L172.3206,161.9915 L172.1956,157.7715 L173.7366,154.9515 L177.3076,154.3145 L179.9896,155.3315 L180.7576,155.8495 L182.5556,157.7715 L183.9596,157.5165 L185.5016,156.8825 L191.7556,152.9115 L193.4096,151.0075 L194.6876,147.0385 L196.2316,145.6485 L199.5506,143.9735 L199.1686,142.3195 L198.9126,140.0295 L198.5326,137.9765 L197.8906,137.0935 L192.6596,134.7855 L191.0006,134.6635 L189.5976,134.9135 L188.4486,135.5485 L187.4316,136.5865 L186.0266,137.4705 L184.7536,136.7105 L183.5996,135.4315 L182.5886,134.7855 L181.1846,132.4845 L180.9156,121.7575 L180.4106,118.0615 L175.2996,107.7075 L173.1196,105.9365 L177.3456,104.1395 L181.6776,101.4545 L187.3236,96.4385 L187.3056,96.3865 L187.2976,96.3555 L187.1526,95.7505 L186.7586,94.1025 L186.5536,93.5785 L186.5176,93.4085 L176.1676,102.6845 L172.1736,104.4535 L168.1126,104.9885 L165.9996,105.7705 L161.6736,109.5275 L159.3616,110.8425 L155.3586,111.1165 L151.1816,109.8765 L148.8036,106.7995 L150.3276,101.6485 L149.5656,100.3925 L148.5546,101.3675 L142.2896,100.3925 L141.1126,101.8615 L140.3506,105.3315 L139.9446,109.3425 L139.8366,112.4665 L138.8496,117.9925 L134.5496,129.1755 L133.5716,134.4285 L133.2896,136.9625 L131.4826,145.2665 L127.1646,177.7225 L125.1676,181.9985 L125.1676,183.2265 L124.2816,187.9475 L118.1236,206.0665 L117.1846,207.7755 L117.1956,207.7815 L121.6586,209.7985 L122.2426,210.0305 L124.0626,210.4335 L126.1786,209.3265 L128.4676,209.8755 L124.1896,217.0055 L124.0476,217.4085 L123.9206,218.1295 L123.8266,219.6805 L123.3316,221.9185 L122.0526,224.0945 L122.1946,225.3195 L123.3466,225.2345 L124.3466,226.2015 L124.8366,226.4415 L125.5316,226.5705 L128.0416,226.5105 L132.3886,225.3455 L134.5506,224.3085 L138.7086,222.9635 L139.2296,223.3155 L139.4816,223.5635 L139.9236,226.0055 L140.2716,226.7935 L141.3496,227.3235 L144.5706,225.1825 L149.3116,223.7865 L151.3646,222.7325 L152.9016,221.1385 L155.1266,220.0415 L159.1736,219.4755 L160.5946,216.7575 L160.9266,216.4655 L161.3996,216.1825 L162.3466,216.2595 L164.2946,215.9165 L166.8206,214.5185 L167.5626,214.5265 L168.1776,214.7755 L168.6676,215.1705 L169.1406,215.8995 L170.7876,215.1705 L174.9086,215.5565 L171.7986,216.7825 L171.3086,217.5635 L171.6566,218.3005 L171.8146,218.8065 L171.9246,219.4235 L172.0826,219.7835 L172.3036,220.0235 L172.5876,220.1785 L172.9346,220.4955 L173.1716,220.7955 L173.3776,221.1125 L173.6456,221.4815 L174.1346,222.5005 L172.4456,224.5825 L171.6756,227.9485 L172.2796,230.4735 L172.7966,233.9795 L175.4696,233.4185 L177.2796,232.5765 L181.1236,231.8615 L186.7806,232.1695 L188.7856,230.7825 L189.5276,229.2765 L190.2386,227.5385 L190.8066,226.3045 L191.1536,224.3605 L193.2266,219.2185 L195.0746,216.1145 L195.5326,215.8475 L196.3376,215.5385 L202.0396,215.5315 L202.8776,215.3805 L195.6596,210.1145 Z M143.9716,95.8835 L147.4026,94.8745 L149.6896,90.4095 L154.4886,86.4505 L157.3226,82.0695 L158.6486,79.4345 L159.3616,77.2185 L157.2726,77.2185 L157.2726,76.1655 L159.0376,74.8435 L159.0626,72.1775 L158.0186,69.1735 L156.5766,66.8235 L157.1486,66.0165 L157.2226,65.2105 L156.9916,64.3415 L156.5766,63.3485 L153.3776,63.1765 L150.8256,67.3675 L148.4216,72.4465 L143.6156,76.5985 L141.0876,80.7005 L139.0746,85.7005 L138.4446,90.1205 L140.3916,94.4065 L143.9716,95.8835 Z" id="Stroke-11" stroke="#C1C1C1" stroke-linecap="round" stroke-linejoin="round"></path>
                <polygon id="Fill-12" fill="#F9F9F9" points="274.4785 330.2317 273.2315 325.3657 272.8055 324.6477 272.6955 324.0647 270.6845 320.6907 269.7685 319.7697 268.7435 319.1437 268.2375 318.3057 268.9165 316.7237 267.3275 314.9567 265.9695 309.0467 264.3965 307.7767 260.2865 307.3527 258.6605 306.3277 257.7915 304.3197 258.1025 302.3447 256.0715 301.3437 245.5985 300.8187 238.4895 295.8737 236.5215 295.3567 235.5525 294.6437 234.2945 291.4777 233.7105 290.7637 229.1595 289.7457 222.6495 290.7477 221.1655 290.2547 219.2125 288.9217 217.2495 289.7107 215.2555 291.2137 213.1655 291.9867 209.0505 291.6807 207.0195 292.7677 206.1515 295.9667 205.6355 298.7147 204.3255 300.8187 202.5315 302.3277 200.5885 303.3017 181.9495 305.3707 181.0445 305.0567 182.1815 302.3707 182.1975 299.7247 178.4345 297.1717 177.2975 297.5367 174.8295 297.4517 171.0405 294.5417 169.4405 292.7937 169.2355 291.4687 169.1565 290.5357 166.7415 290.7637 161.5685 289.7197 158.9425 289.7627 155.0055 293.3447 152.4755 294.1517 146.8655 294.2367 143.9495 296.4757 141.7285 298.8777 140.2715 301.7517 135.1715 307.9037 131.9545 307.9467 129.5975 308.6577 125.3995 310.6717 121.8635 311.7397 117.9605 311.8577 107.4275 309.7247 104.3335 315.4117 100.3565 318.1347 94.9065 319.5557 90.7075 319.9107 86.5185 321.2477 86.4765 321.3687 85.3315 324.6967 85.7205 324.7167 87.0135 325.9547 87.4855 329.0347 87.4445 328.9947 87.4375 328.9887 87.4405 328.9967 87.5105 329.1507 90.1835 332.1997 90.5155 332.6797 91.2255 334.7487 91.2095 336.6977 91.0835 337.3557 89.8475 340.5847 90.7925 340.7557 93.6435 342.4227 95.7645 345.0577 96.5935 348.5817 95.2175 352.3007 93.2455 352.8377 93.2465 352.8397 93.2775 352.9057 93.7355 355.2957 93.3725 355.9527 93.2625 356.4997 93.0725 356.9967 93.1355 358.8557 93.5305 362.0017 94.4935 362.8167 94.8725 363.8507 94.9985 365.0607 95.0045 365.1217 95.9195 365.1537 99.6035 367.1577 101.5715 367.8297 106.3175 368.1367 108.2545 367.1077 108.7595 364.3037 108.1385 362.7077 105.8545 359.9827 105.0655 358.5187 105.1395 356.8697 105.8025 355.5987 106.0125 354.4377 104.7815 353.0857 110.1065 349.9747 115.5695 347.9607 118.5795 347.4637 119.8635 347.7007 120.6735 349.0607 120.5375 351.7857 119.6735 353.8147 119.4845 355.4057 121.4315 356.8017 122.7785 356.9277 125.7155 356.3897 128.9675 357.2107 130.5465 357.1047 131.9145 356.5837 132.9665 355.8007 140.8395 346.1207 144.1965 344.3887 145.6705 344.5327 147.5225 345.2397 149.2285 346.3647 150.2805 347.7467 150.5015 350.2067 149.8695 352.5437 149.4165 355.0097 150.1535 357.8407 145.7125 355.7667 144.5655 355.9357 143.9865 357.8917 146.1445 358.8257 153.2695 359.0697 155.1425 359.5747 159.0795 361.3867 161.2785 360.7817 163.8465 358.2787 166.1935 355.0977 167.7835 352.4627 168.4885 350.4597 168.8355 348.9427 169.4455 347.9607 171.0145 347.5567 171.2985 347.9447 174.3505 349.9747 176.3505 353.7937 175.9925 356.5027 174.8555 359.1077 174.4985 362.6307 175.1505 364.2117 178.6555 368.0947 179.1915 369.5057 180.2335 373.0917 180.7285 374.1537 182.4865 375.1277 186.4225 374.7837 188.3065 374.9727 190.0955 377.2467 190.1485 383.0267 191.9375 383.4837 192.5955 383.3187 195.7795 382.5237 207.8305 383.0307 209.9565 382.2467 214.2295 379.2307 216.2395 378.2617 218.4395 378.5137 220.8285 380.0237 222.7125 382.4897 223.4385 385.6327 223.7645 389.3207 224.3635 389.8327 224.3855 389.8237 226.0905 389.1537 228.5275 388.4167 229.4125 388.5007 230.1685 388.1647 230.8795 387.3687 231.4485 386.2197 232.3695 380.7617 234.1685 377.5747 234.8635 376.4667 237.0265 373.6707 246.9355 370.6487 254.1705 368.3467 257.3185 367.5407 259.6705 365.5827 263.3705 362.5307 260.8915 357.2487 257.4135 352.4427 255.1025 343.1077 253.5245 332.8327 257.1755 333.1957 261.0655 334.5117 262.2645 334.5287 265.0115 334.0737 270.0055 332.3507 270.9995 332.6127 273.4845 334.3267 275.0635 332.9247 275.0835 331.6087"></polygon>
                <polygon id="Stroke-13" stroke="#C1C1C1" stroke-linecap="round" stroke-linejoin="round" points="274.4785 330.2317 273.2315 325.3657 272.8055 324.6477 272.6955 324.0647 270.6845 320.6907 269.7685 319.7697 268.7435 319.1437 268.2375 318.3057 268.9165 316.7237 267.3275 314.9567 265.9695 309.0467 264.3965 307.7767 260.2865 307.3527 258.6605 306.3277 257.7915 304.3197 258.1025 302.3447 256.0715 301.3437 245.5985 300.8187 238.4895 295.8737 236.5215 295.3567 235.5525 294.6437 234.2945 291.4777 233.7105 290.7637 229.1595 289.7457 222.6495 290.7477 221.1655 290.2547 219.2125 288.9217 217.2495 289.7107 215.2555 291.2137 213.1655 291.9867 209.0505 291.6807 207.0195 292.7677 206.1515 295.9667 205.6355 298.7147 204.3255 300.8187 202.5315 302.3277 200.5885 303.3017 181.9495 305.3707 181.0445 305.0567 182.1815 302.3707 182.1975 299.7247 178.4345 297.1717 177.2975 297.5367 174.8295 297.4517 171.0405 294.5417 169.4405 292.7937 169.2355 291.4687 169.1565 290.5357 166.7415 290.7637 161.5685 289.7197 158.9425 289.7627 155.0055 293.3447 152.4755 294.1517 146.8655 294.2367 143.9495 296.4757 141.7285 298.8777 140.2715 301.7517 135.1715 307.9037 131.9545 307.9467 129.5975 308.6577 125.3995 310.6717 121.8635 311.7397 117.9605 311.8577 107.4275 309.7247 104.3335 315.4117 100.3565 318.1347 94.9065 319.5557 90.7075 319.9107 86.5185 321.2477 86.4765 321.3687 85.3315 324.6967 85.7205 324.7167 87.0135 325.9547 87.4855 329.0347 87.4445 328.9947 87.4375 328.9887 87.4405 328.9967 87.5105 329.1507 90.1835 332.1997 90.5155 332.6797 91.2255 334.7487 91.2095 336.6977 91.0835 337.3557 89.8475 340.5847 90.7925 340.7557 93.6435 342.4227 95.7645 345.0577 96.5935 348.5817 95.2175 352.3007 93.2455 352.8377 93.2465 352.8397 93.2775 352.9057 93.7355 355.2957 93.3725 355.9527 93.2625 356.4997 93.0725 356.9967 93.1355 358.8557 93.5305 362.0017 94.4935 362.8167 94.8725 363.8507 94.9985 365.0607 95.0045 365.1217 95.9195 365.1537 99.6035 367.1577 101.5715 367.8297 106.3175 368.1367 108.2545 367.1077 108.7595 364.3037 108.1385 362.7077 105.8545 359.9827 105.0655 358.5187 105.1395 356.8697 105.8025 355.5987 106.0125 354.4377 104.7815 353.0857 110.1065 349.9747 115.5695 347.9607 118.5795 347.4637 119.8635 347.7007 120.6735 349.0607 120.5375 351.7857 119.6735 353.8147 119.4845 355.4057 121.4315 356.8017 122.7785 356.9277 125.7155 356.3897 128.9675 357.2107 130.5465 357.1047 131.9145 356.5837 132.9665 355.8007 140.8395 346.1207 144.1965 344.3887 145.6705 344.5327 147.5225 345.2397 149.2285 346.3647 150.2805 347.7467 150.5015 350.2067 149.8695 352.5437 149.4165 355.0097 150.1535 357.8407 145.7125 355.7667 144.5655 355.9357 143.9865 357.8917 146.1445 358.8257 153.2695 359.0697 155.1425 359.5747 159.0795 361.3867 161.2785 360.7817 163.8465 358.2787 166.1935 355.0977 167.7835 352.4627 168.4885 350.4597 168.8355 348.9427 169.4455 347.9607 171.0145 347.5567 171.2985 347.9447 174.3505 349.9747 176.3505 353.7937 175.9925 356.5027 174.8555 359.1077 174.4985 362.6307 175.1505 364.2117 178.6555 368.0947 179.1915 369.5057 180.2335 373.0917 180.7285 374.1537 182.4865 375.1277 186.4225 374.7837 188.3065 374.9727 190.0955 377.2467 190.1485 383.0267 191.9375 383.4837 192.5955 383.3187 195.7795 382.5237 207.8305 383.0307 209.9565 382.2467 214.2295 379.2307 216.2395 378.2617 218.4395 378.5137 220.8285 380.0237 222.7125 382.4897 223.4385 385.6327 223.7645 389.3207 224.3635 389.8327 224.3855 389.8237 226.0905 389.1537 228.5275 388.4167 229.4125 388.5007 230.1685 388.1647 230.8795 387.3687 231.4485 386.2197 232.3695 380.7617 234.1685 377.5747 234.8635 376.4667 237.0265 373.6707 246.9355 370.6487 254.1705 368.3467 257.3185 367.5407 259.6705 365.5827 263.3705 362.5307 260.8915 357.2487 257.4135 352.4427 255.1025 343.1077 253.5245 332.8327 257.1755 333.1957 261.0655 334.5117 262.2645 334.5287 265.0115 334.0737 270.0055 332.3507 270.9995 332.6127 273.4845 334.3267 275.0635 332.9247 275.0835 331.6087"></polygon>
                <polygon id="Fill-14" fill="#F9F9F9" points="257.0337 298.5123 256.1187 299.1393 256.0717 301.3433 258.1027 302.3453 257.7927 304.3203 258.6597 306.3273 260.2867 307.3533 264.3967 307.7773 265.9697 309.0473 267.3267 314.9563 268.9177 316.7243 268.2367 318.3063 268.7427 319.1443 269.7687 319.7693 270.6847 320.6913 272.6957 324.0653 272.8057 324.6473 273.2307 325.3653 274.4787 330.2323 275.0837 331.6093 275.0637 332.9243 273.4837 334.3263 270.9997 332.6123 270.0057 332.3503 265.0117 334.0733 262.2647 334.5283 261.0657 334.5123 257.1757 333.1953 253.5247 332.8323 255.1027 343.1073 257.4127 352.4433 260.8917 357.2483 263.3697 362.5303 259.6707 365.5823 257.3177 367.5403 254.1707 368.3473 246.9357 370.6493 237.0267 373.6713 234.8627 376.4663 234.1697 377.5743 232.3697 380.7623 231.4487 386.2203 230.8797 387.3683 230.1687 388.1643 229.4117 388.5003 228.5267 388.4163 226.0907 389.1543 224.3857 389.8233 224.3627 389.8323 226.0907 391.3093 231.8577 393.0523 233.2377 394.0243 234.2157 395.1493 235.3217 395.9413 237.0677 395.9233 241.3317 395.0453 242.6357 395.1833 244.2987 396.1793 246.4247 399.1163 247.7827 400.2583 250.9087 399.4633 252.6447 399.6023 253.5497 401.6633 253.8027 402.4413 252.3707 403.8593 252.0447 405.7063 254.3607 408.1893 253.4237 408.8203 252.3927 409.2373 251.2977 409.4053 250.1827 409.2833 250.4347 410.4533 250.5927 410.9463 250.8767 411.5983 250.1187 413.8153 249.5617 414.9633 248.7937 416.0113 247.6037 414.9923 246.7727 415.5053 246.2567 417.0703 246.0147 419.2113 247.3937 421.0883 245.7827 425.0243 241.7727 431.4343 244.0457 430.8173 245.0247 430.8423 246.0147 431.4343 244.8457 433.3993 243.0887 437.1463 241.7727 439.1273 241.2887 439.5193 240.1097 439.9423 238.9297 440.4173 231.5857 448.6253 231.8057 452.2233 233.4577 454.6733 235.1597 455.8623 235.7537 456.2763 237.9517 457.3303 239.5427 457.8033 239.3627 459.6963 238.3097 463.3793 240.1627 464.4413 241.2677 464.6653 242.3317 464.4493 242.8327 463.6973 243.9307 462.0523 244.8357 461.3553 245.8567 461.7453 247.9397 464.0433 248.9827 464.7733 257.8127 464.5483 258.9747 464.9183 258.9787 464.9193 260.0857 465.2703 267.4747 465.5113 269.5277 465.1293 269.7477 463.0393 269.0847 462.0613 268.0737 461.3553 267.2957 460.0113 266.8647 457.9523 268.4117 458.3433 269.8737 456.9723 270.4117 455.0633 270.1887 453.5853 270.0957 452.1973 270.9897 450.5863 272.3897 449.7883 274.6847 449.9873 275.8207 448.6253 276.4417 446.9713 276.4737 445.6913 275.6107 442.3803 275.7997 441.3153 276.3367 440.4413 276.5357 439.7933 273.2107 438.6363 270.8107 437.1303 270.0327 436.2723 269.7687 434.9903 269.6217 432.6663 270.0107 431.3253 270.6317 429.9683 270.4217 429.1263 266.7697 429.5673 264.0957 428.6843 262.6857 428.4923 261.3067 428.8833 258.6657 430.1923 257.2757 430.4753 257.1707 426.4083 255.6027 421.7683 255.0227 417.9883 257.8757 416.4873 259.2867 417.2803 260.4957 418.8533 261.8537 420.0963 263.7277 419.8963 264.9807 418.5193 266.9377 414.4073 268.3057 412.8293 277.7257 405.4423 283.5247 402.2953 285.0397 400.2833 282.9047 398.2883 285.2297 396.3833 286.0397 395.9113 283.7047 395.1073 278.6307 398.5933 276.2417 397.2633 275.5157 394.2703 275.8107 390.6523 276.6837 387.4233 277.7257 385.6333 279.8727 383.0143 285.0927 373.3773 286.1557 372.3323 288.7447 370.5263 289.7557 369.0943 290.3027 367.0693 290.6187 363.5053 291.2077 362.0763 289.6717 360.2393 289.8087 357.2393 290.5867 353.7763 290.9547 350.5523 290.4607 347.5943 289.7347 342.2513 285.6297 337.5033 278.8517 328.1753 278.4107 326.1683 278.9567 323.8313 280.1467 320.1713 273.2527 317.1383 270.9167 314.1603 272.2837 309.5213 271.2747 308.4793 269.0007 306.7553 267.8317 306.1963 264.8757 306.2643 263.8637 305.8523 263.9497 304.0903 264.5517 303.4903 264.4067 303.5393 264.0797 303.6493 261.4747 301.8873 261.1127 301.5473 259.2917 299.0373 258.8337 298.4013 258.5337 298.3093 258.0437 298.3003"></polygon>
                <polygon id="Stroke-15" stroke="#C1C1C1" stroke-linecap="round" stroke-linejoin="round" points="289.6718 360.2385 289.8088 357.2395 290.5868 353.7765 290.9548 350.5515 290.4608 347.5945 289.7338 342.2515 285.6298 337.5035 278.8518 328.1755 278.4098 326.1685 278.9568 323.8315 280.1468 320.1715 273.2528 317.1385 270.9158 314.1605 272.2838 309.5205 271.2748 308.4785 269.0008 306.7555 267.8318 306.1965 264.8748 306.2635 263.8638 305.8525 263.9488 304.0905 264.5518 303.4905 264.4058 303.5395 264.0798 303.6495 261.4758 301.8865 261.1118 301.5475 259.2918 299.0375 258.8338 298.4015 258.5338 298.3085 258.0438 298.3005 257.0338 298.5115 256.1178 299.1395 256.0708 301.3435 258.1028 302.3445 257.7918 304.3195 258.6598 306.3275 260.2858 307.3525 264.3968 307.7765 265.9698 309.0475 267.3268 314.9565 268.9168 316.7235 268.2368 318.3055 268.7428 319.1435 269.7688 319.7695 270.6848 320.6905 272.6948 324.0645 272.8058 324.6475 273.2318 325.3655 274.4788 330.2315 275.0838 331.6085 275.0638 332.9255 273.4848 334.3265 270.9998 332.6125 270.0058 332.3505 265.0118 334.0735 262.2648 334.5285 261.0658 334.5115 257.1758 333.1955 253.5248 332.8325 255.1028 343.1075 257.4128 352.4425 260.8918 357.2485 263.3698 362.5305 259.6708 365.5825 257.3178 367.5405 254.1708 368.3465 246.9358 370.6485 237.0258 373.6715 234.8628 376.4675 234.1688 377.5745 232.3688 380.7615 231.4478 386.2195 230.8798 387.3685 230.1688 388.1645 229.4118 388.5005 228.5268 388.4165 226.0908 389.1535 224.3858 389.8235 224.3628 389.8325 226.0908 391.3095 231.8588 393.0515 233.2368 394.0235 234.2158 395.1495 235.3208 395.9405 237.0678 395.9245 241.3308 395.0455 242.6358 395.1825 244.2988 396.1785 246.4248 399.1165 247.7818 400.2585 250.9078 399.4635 252.6448 399.6015 253.5498 401.6635 253.8028 402.4415 252.3708 403.8585 252.0448 405.7065 254.3598 408.1885 253.4238 408.8195 252.3928 409.2375 251.2978 409.4045 250.1828 409.2835 250.4348 410.4535 250.5928 410.9465 250.8768 411.5975 250.1188 413.8145 249.5618 414.9635 248.7928 416.0105 247.6038 414.9925 246.7728 415.5055 246.2568 417.0705 246.0148 419.2115 247.3938 421.0885 245.7828 425.0245 241.7728 431.4335 244.0458 430.8175 245.0258 430.8425 246.0148 431.4335 244.8458 433.3995 243.0888 437.1465 241.7728 439.1275 241.2888 439.5185 240.1098 439.9425 238.9308 440.4175 231.5848 448.6255 231.8058 452.2225 233.4578 454.6735 235.1598 455.8615 235.7528 456.2755 237.9518 457.3305 239.5418 457.8025 239.3618 459.6955 238.3108 463.3795 240.1618 464.4415 241.2678 464.6655 242.3308 464.4495 242.8328 463.6975 243.9308 462.0515 244.8358 461.3555 245.8568 461.7455 247.9408 464.0435 248.9828 464.7725 257.8128 464.5495 258.9748 464.9185 258.9788 464.9195 260.0858 465.2705 267.4748 465.5105 269.5268 465.1295 269.7478 463.0395 269.0848 462.0605 268.0738 461.3555 267.2958 460.0105 266.8638 457.9525 268.4108 458.3425 269.8738 456.9725 270.4108 455.0635 270.1898 453.5855 270.0958 452.1975 270.9898 450.5865 272.3898 449.7885 274.6848 449.9875 275.8198 448.6255 276.4418 446.9705 276.4738 445.6905 275.6098 442.3805 275.7998 441.3155 276.3368 440.4415 276.5358 439.7935 273.2108 438.6355 270.8108 437.1305 270.0318 436.2725 269.7688 434.9905 269.6218 432.6665 270.0108 431.3255 270.6318 429.9675 270.4218 429.1265 266.7698 429.5675 264.0958 428.6835 262.6858 428.4925 261.3068 428.8845 258.6648 430.1925 257.2758 430.4755 257.1708 426.4085 255.6028 421.7675 255.0238 417.9885 257.8758 416.4865 259.2858 417.2795 260.4958 418.8525 261.8548 420.0955 263.7278 419.8955 264.9808 418.5185 266.9378 414.4075 268.3058 412.8295 277.7258 405.4425 283.5248 402.2955 285.0398 400.2835 282.9038 398.2885 285.2298 396.3845 286.0398 395.9115 283.7038 395.1075 278.6308 398.5925 276.2408 397.2625 275.5158 394.2705 275.8108 390.6525 276.6838 387.4235 277.7258 385.6335 279.8728 383.0135 285.0928 373.3775 286.1558 372.3325 288.7448 370.5265 289.7558 369.0935 290.3028 367.0695 290.6188 363.5065 291.2078 362.0765"></polygon>
                <path d="M314.9712,0.3756 L315.1622,1.5086 L316.9612,2.6426 L320.5992,3.8666 L320.8472,3.2196 L321.1622,2.7826 L321.5352,2.5736 L321.9912,2.6016 L316.3892,0.1246 L314.9712,0.3756 Z M329.2502,1.7476 L328.2222,2.6306 L327.9792,3.5156 L329.5072,4.2926 L330.1492,3.5156 L330.5302,2.3746 L331.3032,2.1146 L331.5462,1.7476 L329.2502,1.7476 Z M320.3922,20.5096 L305.2342,24.9486 L302.6402,26.9866 L301.7692,27.2776 L300.7912,26.9176 L299.0012,25.3096 L297.9412,24.9486 L288.9912,25.2326 L288.9882,25.2326 L287.8932,27.4236 L287.3882,29.4746 L288.3812,33.1776 L289.8392,33.8206 L291.7652,34.3736 L292.1292,34.5936 L292.5232,34.9636 L293.1072,35.8156 L293.5342,36.2906 L293.8812,36.4936 L294.1662,36.5816 L294.4822,36.5636 L294.8442,36.4236 L295.4182,36.0366 L295.7022,35.9126 L296.0342,35.8866 L297.9112,36.5196 L298.2752,37.0826 L298.4492,38.0226 L298.2132,40.1496 L298.1642,41.8106 L298.3392,42.0126 L298.6072,42.1706 L299.2862,42.4336 L299.2862,42.6096 L299.0012,42.9526 L297.2972,44.5426 L295.9072,46.1306 L295.5282,46.8956 L295.0182,49.0896 L293.5022,51.6866 L292.2392,54.2136 L292.4442,55.0106 L292.5392,55.7216 L292.7452,56.1426 L292.9182,56.6596 L293.0292,57.1426 L293.0612,57.6066 L292.7912,58.2896 L289.0132,63.3366 L287.9712,65.4306 L287.2622,69.0716 L287.7352,72.7036 L288.6822,73.9196 L290.0292,75.1346 L290.9142,75.4226 L295.2592,75.8436 L297.0122,76.4726 L300.6742,78.8766 L301.5652,79.3736 L303.6632,80.0476 L304.4702,79.5756 L306.1112,76.6116 L306.5432,74.9156 L306.9532,73.8226 L308.2322,71.1196 L308.5322,70.2446 L308.6112,69.8426 L309.2902,68.1786 L310.8212,66.2356 L312.1782,64.8516 L314.0472,63.6696 L317.7412,60.3326 L321.1092,61.9266 L322.9712,62.7236 L324.0822,62.5836 L325.8192,64.9566 L327.4762,67.8816 L327.7922,68.1526 L328.3442,68.3546 L329.4082,69.2296 L332.8822,73.8836 L333.9712,76.4906 L334.1602,76.7526 L334.3502,77.0846 L334.9022,76.9006 L341.1962,74.8196 L343.9112,75.0736 L344.8732,75.5976 L345.4582,76.0176 L349.0322,79.8556 L353.4892,84.7736 L355.9042,87.1576 L357.8302,88.9906 L361.3712,92.7166 L365.3082,96.8856 L370.0652,103.3336 L375.0542,109.5686 L375.7702,109.7326 L375.8972,110.4556 L375.8492,111.1256 L373.6962,116.7706 L375.7232,117.4746 L376.7802,118.3356 L378.6282,120.6296 L379.1912,121.5946 L379.2262,121.6566 L380.0112,119.4526 L388.3682,106.2856 L390.5782,100.6416 L391.5152,95.2626 L391.6732,89.2126 L390.7252,77.1106 L390.3462,75.6326 L389.8522,74.7496 L389.4632,73.6746 L389.3892,71.6486 L389.6412,70.2836 L391.0842,66.5556 L391.7782,63.6396 L392.0942,60.9976 L391.9892,58.2766 L391.6952,53.4586 L390.5512,53.4446 L383.1922,51.5376 L380.1012,49.7626 L379.8852,47.0186 L379.3892,45.5946 L379.3642,44.8616 L379.7702,44.3496 L380.5822,43.6446 L380.5822,42.4826 L379.8852,42.4826 L379.0152,43.4516 L377.8142,43.7896 L376.5882,43.4646 L375.7262,42.4826 L373.9182,43.0766 L369.8582,40.7606 L366.6432,39.6876 L365.9382,38.8996 L365.4322,38.1036 L364.9442,37.7296 L364.7542,37.3076 L362.2842,35.5346 L361.7532,35.3136 L358.3222,21.2656 L356.5822,19.4546 L354.4772,18.4836 L344.4082,16.7696 L320.3922,20.5096 Z" id="Fill-17" fill="#F9F9F9"></path>
                <path d="M330.1484,3.5154 L330.5304,2.3744 L331.3034,2.1144 L331.5464,1.7464 L329.2514,1.7464 L328.2214,2.6304 L327.9784,3.5154 L329.5064,4.2924 L330.1484,3.5154 Z M316.9604,2.6424 L320.5984,3.8674 L320.8474,3.2204 L321.1624,2.7824 L321.5354,2.5734 L321.9914,2.6014 L316.3884,0.1244 L314.9714,0.3754 L315.1624,1.5094 L316.9604,2.6424 Z M391.0844,66.5554 L391.7784,63.6394 L392.0934,60.9974 L391.9894,58.2764 L391.6954,53.4584 L390.5514,53.4444 L383.1924,51.5374 L380.1014,49.7624 L379.8854,47.0184 L379.3884,45.5944 L379.3644,44.8614 L379.7704,44.3494 L380.5824,43.6444 L380.5824,42.4824 L379.8854,42.4824 L379.0154,43.4514 L377.8144,43.7894 L376.5874,43.4654 L375.7254,42.4824 L373.9194,43.0774 L369.8584,40.7604 L366.6424,39.6874 L365.9384,38.8994 L365.4324,38.1034 L364.9444,37.7294 L364.7534,37.3074 L362.2844,35.5354 L361.7524,35.3134 L358.3224,21.2654 L356.5824,19.4544 L354.4774,18.4834 L344.4084,16.7684 L320.3914,20.5094 L305.2344,24.9484 L302.6404,26.9864 L301.7694,27.2774 L300.7924,26.9174 L299.0024,25.3084 L297.9414,24.9484 L288.9914,25.2324 L288.9884,25.2324 L287.8924,27.4234 L287.3874,29.4744 L288.3814,33.1784 L289.8394,33.8204 L291.7654,34.3744 L292.1284,34.5944 L292.5234,34.9634 L293.1074,35.8164 L293.5344,36.2914 L293.8814,36.4934 L294.1664,36.5814 L294.4814,36.5634 L294.8444,36.4234 L295.4184,36.0364 L295.7024,35.9124 L296.0344,35.8864 L297.9124,36.5194 L298.2754,37.0824 L298.4494,38.0224 L298.2124,40.1494 L298.1654,41.8104 L298.3384,42.0124 L298.6074,42.1704 L299.2864,42.4334 L299.2864,42.6094 L299.0024,42.9524 L297.2964,44.5424 L295.9074,46.1314 L295.5284,46.8954 L295.0184,49.0894 L293.5024,51.6864 L292.2394,54.2134 L292.4444,55.0114 L292.5404,55.7214 L292.7454,56.1424 L292.9194,56.6594 L293.0294,57.1414 L293.0604,57.6064 L292.7924,58.2894 L289.0134,63.3364 L287.9714,65.4304 L287.2614,69.0724 L287.7354,72.7034 L288.6824,73.9184 L290.0294,75.1344 L290.9144,75.4234 L295.2594,75.8434 L297.0124,76.4724 L300.6744,78.8764 L301.5644,79.3744 L303.6644,80.0474 L304.4694,79.5754 L306.1114,76.6124 L306.5434,74.9154 L306.9534,73.8224 L308.2324,71.1194 L308.5324,70.2444 L308.6114,69.8424 L309.2904,68.1794 L310.8214,66.2354 L312.1784,64.8514 L314.0464,63.6694 L317.7414,60.3324 L321.1094,61.9264 L322.9714,62.7234 L324.0824,62.5834 L325.8194,64.9574 L327.4764,67.8814 L327.7934,68.1524 L328.3444,68.3544 L329.4084,69.2294 L332.8814,73.8844 L333.9704,76.4904 L334.1604,76.7524 L334.3494,77.0844 L334.9024,76.9004 L341.1964,74.8194 L343.9114,75.0734 L344.8744,75.5984 L345.4594,76.0174 L349.0324,79.8554 L353.4894,84.7734 L355.9044,87.1574 L357.8304,88.9904 L361.3724,92.7164 L365.3084,96.8854 L370.0654,103.3334 L375.0544,109.5684 L375.7704,109.7334 L375.8964,110.4554 L375.8484,111.1254 L373.6964,116.7704 L375.7224,117.4744 L376.7804,118.3354 L378.6274,120.6304 L379.1904,121.5954 L379.2264,121.6564 L380.0114,119.4524 L388.3684,106.2864 L390.5784,100.6414 L391.5154,95.2634 L391.6724,89.2124 L390.7254,77.1104 L390.3464,75.6324 L389.8524,74.7494 L389.4624,73.6744 L389.3894,71.6484 L389.6414,70.2844 L391.0844,66.5554 Z" id="Stroke-18" stroke="#C1C1C1" stroke-linecap="round" stroke-linejoin="round"></path>
                <polygon id="Fill-20" fill="#F9F9F9" points="352.4472 265.134 351.9212 264.338 349.2892 261.551 342.6372 257.824 340.4062 257.164 338.7862 256.017 338.5752 253.499 339.2802 251.78 340.1962 251.345 341.2692 251.268 342.4902 250.654 343.3112 249.616 344.1422 247.511 344.6792 246.572 346.4052 244.774 348.0372 243.86 348.6182 243.794 348.5482 243.739 347.3892 242.851 337.4492 240.732 338.4592 238.243 338.4912 237.371 338.3812 235.721 338.2072 235.053 337.9382 234.582 337.5912 234.352 336.5962 233.915 335.7922 233.693 332.1712 234.574 331.7602 234.506 331.3182 234.343 331.3182 233.813 331.2232 233.111 330.8772 232.332 330.3072 232.118 329.6922 232.084 326.8292 232.683 322.9092 232.204 320.4772 232.478 317.4892 229.619 312.6582 222.561 312.5472 222.33 311.9422 221.31 308.9112 220.941 305.4172 222.363 303.9012 223.512 302.8902 223.812 296.4442 223.915 289.3132 222.492 288.3352 222.449 288.0192 222.578 287.0552 223.384 286.3302 224.497 286.1092 224.531 285.7612 224.454 284.9252 223.675 284.6402 223.255 284.4982 222.878 284.4982 222.647 284.5302 222.484 284.9092 221.412 284.7192 220.607 284.2152 220.195 283.0722 219.664 282.6772 219.372 282.5042 218.832 282.6772 218.326 282.7252 216.937 280.8932 212.158 278.8092 211.189 278.2892 210.562 277.2422 209.06 276.9732 208.493 277.0992 207.291 277.9892 203.641 278.9362 202.232 278.8572 201.518 278.3522 200.375 278.5572 200.143 278.8732 199.894 282.2672 198.751 283.7722 194.743 283.9142 192.885 283.7722 192.368 283.5612 191.938 281.4462 188.857 280.6572 186.816 279.7572 184.172 279.1092 183.19 278.3522 182.535 276.5472 180.588 275.7892 179.036 275.0942 177.932 274.4002 177.509 273.1692 176.984 270.2112 178.553 266.9592 181.329 263.8752 182.268 263.0532 182.052 262.4072 181.484 260.2552 177.346 258.9912 175.423 257.9262 175.295 256.9572 175.22 256.9592 175.242 256.8342 178.554 255.6782 182.502 253.7692 185.831 249.6792 191.702 247.5092 194.13 244.1892 196.572 240.7382 198.369 234.8652 200.14 231.7942 202.685 227.1922 208.318 223.8822 216.112 222.7312 217.391 213.9332 219.558 209.5902 219.175 209.5372 219.15 209.2342 220.763 208.8672 223.598 208.6302 225.405 209.1982 226.373 212.8822 229.37 212.6762 230.997 212.3302 231.681 211.6672 232.221 211.4772 232.443 211.3982 232.769 212.0132 233.898 214.4292 234.694 216.5342 235.173 217.2452 235.729 218.1442 237.072 218.5552 237.465 219.3762 237.987 220.1652 238.876 220.4332 239.252 220.4182 239.833 219.9132 240.825 219.9282 241.937 220.0232 242.518 220.0232 242.834 219.9922 243.022 218.8862 242.937 218.0972 244.612 217.4972 246.388 217.1972 246.935 216.7082 247.507 215.9342 248.173 216.0932 248.531 216.2982 248.822 219.1392 250.239 220.0702 249.906 221.1342 249.07 221.4812 248.942 221.8912 248.907 222.3012 248.634 222.6962 248.173 223.1232 247.37 223.2642 246.721 223.3282 246.064 222.8852 244.842 224.5592 244.448 225.4272 247.797 225.5222 248.695 225.7272 249.658 225.5862 253.611 226.4852 258.618 227.7692 260.92 229.8692 263.188 230.5642 264.67 230.9902 265.42 231.1792 266.075 231.3222 266.928 231.2742 269.517 230.9112 270.291 227.4902 269.457 219.6442 264.73 215.2562 263.801 213.9822 264.151 211.9672 265.599 211.0192 266.05 209.8672 265.999 207.1932 265.028 204.9352 265.548 201.9412 267.856 199.8312 268.402 194.1112 265.215 192.5952 265.539 190.7592 266.962 188.3122 267.43 186.8012 267.226 184.2652 272.437 183.7912 273.237 180.2182 279.634 180.3922 280.552 180.5812 281.292 180.5812 281.793 180.4872 282.151 179.4292 282.821 171.6092 286.127 168.6672 286.306 169.3142 287.3 169.2992 287.622 169.0302 288.947 169.1562 290.535 169.2362 291.469 169.4412 292.793 171.0402 294.541 174.8292 297.451 177.2982 297.536 178.4342 297.172 182.1972 299.725 182.1812 302.37 181.0442 305.057 181.9492 305.37 200.5892 303.302 202.5312 302.327 204.3252 300.819 205.6352 298.715 206.1512 295.967 207.0192 292.768 209.0512 291.681 213.1662 291.987 215.2562 291.214 217.2502 289.711 219.2132 288.922 221.1652 290.255 222.6492 290.747 229.1592 289.745 233.7112 290.764 234.2952 291.478 235.5522 294.644 236.5212 295.357 238.4892 295.873 245.5982 300.819 256.0712 301.344 256.1182 299.14 257.0342 298.512 258.0442 298.3 258.5342 298.309 258.8342 298.402 259.2922 299.037 261.1122 301.547 261.4752 301.887 264.0802 303.65 264.4062 303.539 264.5512 303.49 266.2122 301.84 266.3902 298.525 265.0332 295.348 262.7182 293.57 263.0642 292.106 264.7592 290.905 268.9162 290.165 270.8842 289.325 272.9892 287.758 274.4522 286.977 278.5992 285.86 281.9042 286.743 284.3032 287.359 285.9452 287.767 284.5772 285.609 280.7782 281.614 279.5142 280.654 282.9772 278.775 286.2612 280.326 289.5342 282.984 292.9762 284.398 296.1552 283.697 296.9972 283.799 297.7222 284.504 298.8482 286.527 299.3122 287.091 303.2172 287.686 304.8692 288.65 305.1752 291.21 308.9952 290.145 309.4162 288.506 308.5852 284.797 315.1102 286.731 317.1832 286.731 318.8672 285.966 323.8772 282.116 334.0122 278.648 343.0272 278.358 345.7852 276.865 348.1522 274.036 350.4782 269.815 351.3102 268.899 352.0892 268.763 352.6042 268.261 352.6992 266.246"></polygon>
                <polygon id="Stroke-21" stroke="#C1C1C1" stroke-linecap="round" stroke-linejoin="round" points="352.4472 265.134 351.9212 264.338 349.2892 261.551 342.6372 257.824 340.4062 257.164 338.7862 256.017 338.5752 253.499 339.2802 251.78 340.1962 251.345 341.2692 251.268 342.4902 250.654 343.3112 249.616 344.1422 247.511 344.6792 246.572 346.4052 244.774 348.0372 243.86 348.6182 243.794 348.5482 243.739 347.3892 242.851 337.4492 240.732 338.4592 238.243 338.4912 237.371 338.3812 235.721 338.2072 235.053 337.9382 234.582 337.5912 234.352 336.5962 233.915 335.7922 233.693 332.1712 234.574 331.7602 234.506 331.3182 234.343 331.3182 233.813 331.2232 233.111 330.8772 232.332 330.3072 232.118 329.6922 232.084 326.8292 232.683 322.9092 232.204 320.4772 232.478 317.4892 229.619 312.6582 222.561 312.5472 222.33 311.9422 221.31 308.9112 220.941 305.4172 222.363 303.9012 223.512 302.8902 223.812 296.4442 223.915 289.3132 222.492 288.3352 222.449 288.0192 222.578 287.0552 223.384 286.3302 224.497 286.1092 224.531 285.7612 224.454 284.9252 223.675 284.6402 223.255 284.4982 222.878 284.4982 222.647 284.5302 222.484 284.9092 221.412 284.7192 220.607 284.2152 220.195 283.0722 219.664 282.6772 219.372 282.5042 218.832 282.6772 218.326 282.7252 216.937 280.8932 212.158 278.8092 211.189 278.2892 210.562 277.2422 209.06 276.9732 208.493 277.0992 207.291 277.9892 203.641 278.9362 202.232 278.8572 201.518 278.3522 200.375 278.5572 200.143 278.8732 199.894 282.2672 198.751 283.7722 194.743 283.9142 192.885 283.7722 192.368 283.5612 191.938 281.4462 188.857 280.6572 186.816 279.7572 184.172 279.1092 183.19 278.3522 182.535 276.5472 180.588 275.7892 179.036 275.0942 177.932 274.4002 177.509 273.1692 176.984 270.2112 178.553 266.9592 181.329 263.8752 182.268 263.0532 182.052 262.4072 181.484 260.2552 177.346 258.9912 175.423 257.9262 175.295 256.9572 175.22 256.9592 175.242 256.8342 178.554 255.6782 182.502 253.7692 185.831 249.6792 191.702 247.5092 194.13 244.1892 196.572 240.7382 198.369 234.8652 200.14 231.7942 202.685 227.1922 208.318 223.8822 216.112 222.7312 217.391 213.9332 219.558 209.5902 219.175 209.5372 219.15 209.2342 220.763 208.8672 223.598 208.6302 225.405 209.1982 226.373 212.8822 229.37 212.6762 230.997 212.3302 231.681 211.6672 232.221 211.4772 232.443 211.3982 232.769 212.0132 233.898 214.4292 234.694 216.5342 235.173 217.2452 235.729 218.1442 237.072 218.5552 237.465 219.3762 237.987 220.1652 238.876 220.4332 239.252 220.4182 239.833 219.9132 240.825 219.9282 241.937 220.0232 242.518 220.0232 242.834 219.9922 243.022 218.8862 242.937 218.0972 244.612 217.4972 246.388 217.1972 246.935 216.7082 247.507 215.9342 248.173 216.0932 248.531 216.2982 248.822 219.1392 250.239 220.0702 249.906 221.1342 249.07 221.4812 248.942 221.8912 248.907 222.3012 248.634 222.6962 248.173 223.1232 247.37 223.2642 246.721 223.3282 246.064 222.8852 244.842 224.5592 244.448 225.4272 247.797 225.5222 248.695 225.7272 249.658 225.5862 253.611 226.4852 258.618 227.7692 260.92 229.8692 263.188 230.5642 264.67 230.9902 265.42 231.1792 266.075 231.3222 266.928 231.2742 269.517 230.9112 270.291 227.4902 269.457 219.6442 264.73 215.2562 263.801 213.9822 264.151 211.9672 265.599 211.0192 266.05 209.8672 265.999 207.1932 265.028 204.9352 265.548 201.9412 267.856 199.8312 268.402 194.1112 265.215 192.5952 265.539 190.7592 266.962 188.3122 267.43 186.8012 267.226 184.2652 272.437 183.7912 273.237 180.2182 279.634 180.3922 280.552 180.5812 281.292 180.5812 281.793 180.4872 282.151 179.4292 282.821 171.6092 286.127 168.6672 286.306 169.3142 287.3 169.2992 287.622 169.0302 288.947 169.1562 290.535 169.2362 291.469 169.4412 292.793 171.0402 294.541 174.8292 297.451 177.2982 297.536 178.4342 297.172 182.1972 299.725 182.1812 302.37 181.0442 305.057 181.9492 305.37 200.5892 303.302 202.5312 302.327 204.3252 300.819 205.6352 298.715 206.1512 295.967 207.0192 292.768 209.0512 291.681 213.1662 291.987 215.2562 291.214 217.2502 289.711 219.2132 288.922 221.1652 290.255 222.6492 290.747 229.1592 289.745 233.7112 290.764 234.2952 291.478 235.5522 294.644 236.5212 295.357 238.4892 295.873 245.5982 300.819 256.0712 301.344 256.1182 299.14 257.0342 298.512 258.0442 298.3 258.5342 298.309 258.8342 298.402 259.2922 299.037 261.1122 301.547 261.4752 301.887 264.0802 303.65 264.4062 303.539 264.5512 303.49 266.2122 301.84 266.3902 298.525 265.0332 295.348 262.7182 293.57 263.0642 292.106 264.7592 290.905 268.9162 290.165 270.8842 289.325 272.9892 287.758 274.4522 286.977 278.5992 285.86 281.9042 286.743 284.3032 287.359 285.9452 287.767 284.5772 285.609 280.7782 281.614 279.5142 280.654 282.9772 278.775 286.2612 280.326 289.5342 282.984 292.9762 284.398 296.1552 283.697 296.9972 283.799 297.7222 284.504 298.8482 286.527 299.3122 287.091 303.2172 287.686 304.8692 288.65 305.1752 291.21 308.9952 290.145 309.4162 288.506 308.5852 284.797 315.1102 286.731 317.1832 286.731 318.8672 285.966 323.8772 282.116 334.0122 278.648 343.0272 278.358 345.7852 276.865 348.1522 274.036 350.4782 269.815 351.3102 268.899 352.0892 268.763 352.6042 268.261 352.6992 266.246"></polygon>
                <path d="M312.9892,97.53 L307.4742,90.116 L307.0952,88.222 L306.5432,86.537 L306.6372,85.612 L306.3952,84.669 L306.1592,84.179 L303.2852,82.948 L301.6912,81.996 L301.3752,81.681 L301.5642,79.374 L300.6752,78.876 L297.0122,76.472 L295.2602,75.843 L290.9142,75.423 L290.0292,75.134 L288.6822,73.919 L287.7352,72.703 L287.2612,69.072 L287.9712,65.43 L289.0132,63.337 L292.7922,58.29 L293.0602,57.606 L293.0292,57.142 L292.9192,56.659 L292.7452,56.142 L292.5402,55.721 L292.4442,55.011 L292.2392,54.213 L293.5032,51.687 L295.0182,49.09 L295.5282,46.895 L295.9072,46.131 L297.2972,44.542 L299.0022,42.952 L299.2862,42.61 L299.2862,42.434 L298.6072,42.171 L298.3392,42.012 L298.1652,41.81 L298.2132,40.15 L298.4492,38.023 L298.2752,37.082 L297.9122,36.52 L296.0342,35.886 L295.7022,35.913 L295.4182,36.036 L294.8442,36.423 L294.4812,36.564 L294.1662,36.581 L293.8822,36.493 L293.5342,36.291 L293.1072,35.816 L292.5232,34.964 L292.1292,34.594 L291.7652,34.374 L289.8402,33.82 L288.3822,33.178 L287.3872,29.474 L287.8922,27.424 L288.9882,25.233 L277.9192,25.586 L268.0912,26.071 L261.2612,29.592 L258.9252,29.786 L255.2542,32.419 L238.9442,39.009 L235.3882,42.089 L230.5152,42.911 L228.4522,43.645 L226.6122,45.539 L225.0212,47.855 L223.3052,49.797 L219.5602,51.421 L217.3552,53.368 L213.7752,57.552 L211.7042,62.734 L208.9192,74.299 L206.8312,78.478 L204.7592,79.834 L200.0602,80.934 L198.1712,82.524 L196.6712,84.298 L186.5182,93.408 L186.5532,93.579 L186.7582,94.102 L187.1532,95.751 L187.2982,96.355 L187.3052,96.386 L187.3232,96.439 L197.7722,87.157 L206.3292,81.665 L207.4702,85.235 L208.1132,86.79 L209.1362,88.576 L210.1532,89.203 L210.5402,91.384 L210.4172,93.551 L209.7742,95.584 L210.7842,97.503 L211.1842,100.188 L210.6792,102.873 L208.7562,105.156 L210.1752,107.838 L209.2622,109.126 L207.6132,110.011 L206.4662,111.934 L205.9612,112.189 L205.4492,112.695 L205.4492,114.363 L205.8432,115.38 L206.4782,115.885 L207.2482,116.264 L207.8892,117.032 L210.0552,118.816 L213.2442,119.715 L219.6352,119.984 L220.9012,120.361 L223.3292,121.882 L224.8652,122.262 L226.5192,122.017 L227.5492,121.501 L229.7062,119.984 L231.3812,119.328 L232.9222,119.328 L240.3252,121.495 L241.4782,122.394 L241.1702,122.457 L241.2612,122.472 L241.5312,122.42 L243.6152,122.09 L244.5982,122.707 L247.1402,125.408 L248.1672,127.978 L251.9612,126.077 L253.1612,127.128 L253.5402,127.31 L256.4182,127.787 L256.9862,127.753 L257.7602,127.605 L260.7752,125.799 L261.2702,125.304 L261.7282,124.618 L262.0912,123.967 L262.3432,123.402 L262.7072,122.993 L263.2122,122.681 L265.2642,122.186 L265.6432,121.925 L265.8952,121.612 L266.1642,121.664 L266.7062,121.916 L267.9062,123.689 L268.8382,124.522 L269.3432,124.765 L273.3432,125.061 L274.7952,123.384 L274.8892,123.115 L274.9842,122.385 L275.0942,122.195 L275.3312,121.994 L276.9892,121.525 L278.9522,121.317 L283.2302,119.622 L291.8602,112.97 L295.2602,109.054 L295.9702,108.332 L297.0762,107.462 L299.7912,107.453 L302.0692,108.045 L305.4792,110.368 L310.3472,107.096 L310.9792,106.408 L313.7792,101.783 L314.0472,100.851 L314.2202,100.101 L312.9892,97.53 Z M189.4272,35.161 L203.5412,28.941 L207.1622,28.012 L211.6952,26.009 L215.9302,25.655 L217.2642,24.948 L217.0652,24.345 L216.8252,23.097 L216.6272,22.514 L222.5602,22.271 L225.4442,21.259 L227.8142,17.969 L212.7152,20.891 L211.3472,21.931 L209.6812,23.263 L196.0082,26.071 L193.6872,26.009 L191.8812,27.666 L186.4272,29.585 L185.2832,32.516 L186.5272,35.092 L189.4272,35.161 Z M237.3522,21.973 L242.2512,19.718 L244.8692,19.024 L255.3442,19.024 L265.4222,16.692 L261.2702,14.512 L236.8472,15.526 L235.3052,14.853 L233.5822,16.304 L232.9852,18.809 L234.7672,21.356 L237.3522,21.973 Z M166.8362,45.822 L160.1902,51.98 L155.8802,57.552 L159.0632,58.981 L161.6652,56.69 L163.8862,53.368 L171.9252,45.511 L174.8912,44.378 L176.1682,43.645 L178.8862,43.645 L178.8862,42.483 L173.7562,41.777 L166.8362,45.822 Z M282.9912,16.352 L283.0242,16.894 L283.6212,17.969 L285.6422,15.373 L303.1452,9.706 L304.5382,9.706 L304.5382,8.538 L301.6952,7.635 L291.6092,8.538 L288.9252,9.219 L285.1122,10.928 L282.5522,13.186 L283.6212,15.526 L282.9912,16.352 Z" id="Fill-22" fill="#F9F9F9"></path>
                <path d="M312.9892,97.53 L307.4742,90.116 L307.0952,88.222 L306.5432,86.537 L306.6372,85.612 L306.3952,84.669 L306.1592,84.179 L303.2852,82.948 L301.6912,81.996 L301.3752,81.681 L301.5642,79.374 L300.6752,78.876 L297.0122,76.472 L295.2602,75.843 L290.9142,75.423 L290.0292,75.134 L288.6822,73.919 L287.7352,72.703 L287.2612,69.072 L287.9712,65.43 L289.0132,63.337 L292.7922,58.29 L293.0602,57.606 L293.0292,57.142 L292.9192,56.659 L292.7452,56.142 L292.5402,55.721 L292.4442,55.011 L292.2392,54.213 L293.5032,51.687 L295.0182,49.09 L295.5282,46.895 L295.9072,46.131 L297.2972,44.542 L299.0022,42.952 L299.2862,42.61 L299.2862,42.434 L298.6072,42.171 L298.3392,42.012 L298.1652,41.81 L298.2132,40.15 L298.4492,38.023 L298.2752,37.082 L297.9122,36.52 L296.0342,35.886 L295.7022,35.913 L295.4182,36.036 L294.8442,36.423 L294.4812,36.564 L294.1662,36.581 L293.8822,36.493 L293.5342,36.291 L293.1072,35.816 L292.5232,34.964 L292.1292,34.594 L291.7652,34.374 L289.8402,33.82 L288.3822,33.178 L287.3872,29.474 L287.8922,27.424 L288.9882,25.233 L277.9192,25.586 L268.0912,26.071 L261.2612,29.592 L258.9252,29.786 L255.2542,32.419 L238.9442,39.009 L235.3882,42.089 L230.5152,42.911 L228.4522,43.645 L226.6122,45.539 L225.0212,47.855 L223.3052,49.797 L219.5602,51.421 L217.3552,53.368 L213.7752,57.552 L211.7042,62.734 L208.9192,74.299 L206.8312,78.478 L204.7592,79.834 L200.0602,80.934 L198.1712,82.524 L196.6712,84.298 L186.5182,93.408 L186.5532,93.579 L186.7582,94.102 L187.1532,95.751 L187.2982,96.355 L187.3052,96.386 L187.3232,96.439 L197.7722,87.157 L206.3292,81.665 L207.4702,85.235 L208.1132,86.79 L209.1362,88.576 L210.1532,89.203 L210.5402,91.384 L210.4172,93.551 L209.7742,95.584 L210.7842,97.503 L211.1842,100.188 L210.6792,102.873 L208.7562,105.156 L210.1752,107.838 L209.2622,109.126 L207.6132,110.011 L206.4662,111.934 L205.9612,112.189 L205.4492,112.695 L205.4492,114.363 L205.8432,115.38 L206.4782,115.885 L207.2482,116.264 L207.8892,117.032 L210.0552,118.816 L213.2442,119.715 L219.6352,119.984 L220.9012,120.361 L223.3292,121.882 L224.8652,122.262 L226.5192,122.017 L227.5492,121.501 L229.7062,119.984 L231.3812,119.328 L232.9222,119.328 L240.3252,121.495 L241.4782,122.394 L241.1702,122.457 L241.2612,122.472 L241.5312,122.42 L243.6152,122.09 L244.5982,122.707 L247.1402,125.408 L248.1672,127.978 L251.9612,126.077 L253.1612,127.128 L253.5402,127.31 L256.4182,127.787 L256.9862,127.753 L257.7602,127.605 L260.7752,125.799 L261.2702,125.304 L261.7282,124.618 L262.0912,123.967 L262.3432,123.402 L262.7072,122.993 L263.2122,122.681 L265.2642,122.186 L265.6432,121.925 L265.8952,121.612 L266.1642,121.664 L266.7062,121.916 L267.9062,123.689 L268.8382,124.522 L269.3432,124.765 L273.3432,125.061 L274.7952,123.384 L274.8892,123.115 L274.9842,122.385 L275.0942,122.195 L275.3312,121.994 L276.9892,121.525 L278.9522,121.317 L283.2302,119.622 L291.8602,112.97 L295.2602,109.054 L295.9702,108.332 L297.0762,107.462 L299.7912,107.453 L302.0692,108.045 L305.4792,110.368 L310.3472,107.096 L310.9792,106.408 L313.7792,101.783 L314.0472,100.851 L314.2202,100.101 L312.9892,97.53 Z M189.4272,35.161 L203.5412,28.941 L207.1622,28.012 L211.6952,26.009 L215.9302,25.655 L217.2642,24.948 L217.0652,24.345 L216.8252,23.097 L216.6272,22.514 L222.5602,22.271 L225.4442,21.259 L227.8142,17.969 L212.7152,20.891 L211.3472,21.931 L209.6812,23.263 L196.0082,26.071 L193.6872,26.009 L191.8812,27.666 L186.4272,29.585 L185.2832,32.516 L186.5272,35.092 L189.4272,35.161 Z M237.3522,21.973 L242.2512,19.718 L244.8692,19.024 L255.3442,19.024 L265.4222,16.692 L261.2702,14.512 L236.8472,15.526 L235.3052,14.853 L233.5822,16.304 L232.9852,18.809 L234.7672,21.356 L237.3522,21.973 Z M166.8362,45.822 L160.1902,51.98 L155.8802,57.552 L159.0632,58.981 L161.6652,56.69 L163.8862,53.368 L171.9252,45.511 L174.8912,44.378 L176.1682,43.645 L178.8862,43.645 L178.8862,42.483 L173.7562,41.777 L166.8362,45.822 Z M282.9912,16.352 L283.0242,16.894 L283.6212,17.969 L285.6422,15.373 L303.1452,9.706 L304.5382,9.706 L304.5382,8.538 L301.6952,7.635 L291.6092,8.538 L288.9252,9.219 L285.1122,10.928 L282.5522,13.186 L283.6212,15.526 L282.9912,16.352 Z" id="Stroke-23" stroke="#C1C1C1" stroke-linecap="round" stroke-linejoin="round"></path>
                <path d="M269.8164,153.1106 L267.8274,152.0206 L263.7164,150.8086 L262.8484,150.3936 L262.5644,150.1256 L262.7544,149.8396 L263.4964,149.1386 L263.9064,148.1606 L264.4744,147.2596 L263.7014,142.9556 L262.2494,138.6916 L261.5384,137.4866 L260.3494,135.9086 L255.6284,132.0576 L248.1674,127.9786 L247.1404,125.4086 L244.5984,122.7066 L243.6154,122.0896 L241.5314,122.4206 L241.2614,122.4716 L241.1704,122.4566 L237.7774,123.1456 L234.7084,125.3256 L232.2864,128.6536 L230.2404,132.7286 L229.3404,136.9526 L228.5724,143.9676 L228.6964,150.4826 L230.4944,153.2916 L231.7614,154.3256 L234.1894,158.9226 L235.0954,160.2016 L236.7414,160.7066 L250.1594,159.9446 L251.9524,160.3246 L253.3564,161.3626 L253.6394,161.8536 L254.0864,161.3406 L254.1824,161.2296 L259.3544,158.8616 L260.6964,158.7756 L261.2704,159.1116 L262.9274,159.3886 L263.8904,159.3286 L268.8054,157.6426 L272.0584,155.8266 L269.8164,153.1106 Z M237.1674,163.2176 L234.3594,160.2866 L232.5754,161.6896 L226.7034,163.6006 L224.9054,164.8866 L220.4374,169.3486 L219.4254,169.4936 L217.3784,169.2286 L216.6174,169.8716 L214.1744,176.1446 L212.7714,177.1606 L208.9484,178.7056 L204.3404,182.9026 L196.6954,185.9666 L192.3454,190.3186 L185.9674,193.7626 L183.0294,196.5716 L181.2424,197.5946 L182.2684,200.1406 L182.6494,202.5696 L183.2854,204.4916 L185.4564,205.6326 L190.0624,205.3826 L191.7094,205.6326 L198.7354,208.3176 L201.9254,210.1146 L208.0414,214.9716 L210.7174,216.0996 L217.5024,215.8566 L221.0714,214.4436 L223.2454,211.5186 L223.8814,207.3006 L223.1194,202.1806 L225.9284,200.6456 L227.3454,200.1216 L228.9914,199.9956 L230.5354,199.2346 L232.6994,196.0476 L233.9794,195.2866 L236.6634,194.7756 L241.5164,192.4766 L244.4464,191.9646 L247.2644,190.9356 L249.9434,188.3776 L252.1094,185.0636 L253.7824,181.8726 L255.3104,177.7866 L255.3104,174.4586 L253.2634,167.0426 L237.1674,163.2176 Z" id="Fill-24" fill="#F9F9F9"></path>
                <path d="M269.8164,153.1106 L267.8274,152.0206 L263.7164,150.8086 L262.8484,150.3936 L262.5644,150.1256 L262.7544,149.8396 L263.4964,149.1386 L263.9064,148.1606 L264.4744,147.2596 L263.7014,142.9556 L262.2494,138.6916 L261.5384,137.4866 L260.3494,135.9086 L255.6284,132.0576 L248.1674,127.9786 L247.1404,125.4086 L244.5984,122.7066 L243.6154,122.0896 L241.5314,122.4206 L241.2614,122.4716 L241.1704,122.4566 L237.7774,123.1456 L234.7084,125.3256 L232.2864,128.6536 L230.2404,132.7286 L229.3404,136.9526 L228.5724,143.9676 L228.6964,150.4826 L230.4944,153.2916 L231.7614,154.3256 L234.1894,158.9226 L235.0954,160.2016 L236.7414,160.7066 L250.1594,159.9446 L251.9524,160.3246 L253.3564,161.3626 L253.6394,161.8536 L254.0864,161.3406 L254.1824,161.2296 L259.3544,158.8616 L260.6964,158.7756 L261.2704,159.1116 L262.9274,159.3886 L263.8904,159.3286 L268.8054,157.6426 L272.0584,155.8266 L269.8164,153.1106 Z M237.1674,163.2176 L234.3594,160.2866 L232.5754,161.6896 L226.7034,163.6006 L224.9054,164.8866 L220.4374,169.3486 L219.4254,169.4936 L217.3784,169.2286 L216.6174,169.8716 L214.1744,176.1446 L212.7714,177.1606 L208.9484,178.7056 L204.3404,182.9026 L196.6954,185.9666 L192.3454,190.3186 L185.9674,193.7626 L183.0294,196.5716 L181.2424,197.5946 L182.2684,200.1406 L182.6494,202.5696 L183.2854,204.4916 L185.4564,205.6326 L190.0624,205.3826 L191.7094,205.6326 L198.7354,208.3176 L201.9254,210.1146 L208.0414,214.9716 L210.7174,216.0996 L217.5024,215.8566 L221.0714,214.4436 L223.2454,211.5186 L223.8814,207.3006 L223.1194,202.1806 L225.9284,200.6456 L227.3454,200.1216 L228.9914,199.9956 L230.5354,199.2346 L232.6994,196.0476 L233.9794,195.2866 L236.6634,194.7756 L241.5164,192.4766 L244.4464,191.9646 L247.2644,190.9356 L249.9434,188.3776 L252.1094,185.0636 L253.7824,181.8726 L255.3104,177.7866 L255.3104,174.4586 L253.2634,167.0426 L237.1674,163.2176 Z" id="Stroke-25" stroke="#C1C1C1" stroke-linecap="round" stroke-linejoin="round"></path>
                <polygon id="Fill-26" fill="#F9F9F9" points="379.1904 121.595 378.6284 120.63 376.7804 118.336 375.7224 117.475 373.6964 116.771 375.8484 111.126 375.8964 110.456 375.7704 109.733 375.0544 109.568 370.0654 103.334 365.3084 96.885 361.3724 92.717 357.8304 88.991 355.9044 87.157 353.4894 84.774 349.0324 79.855 345.4594 76.018 344.8744 75.598 343.9114 75.074 341.1964 74.82 334.9024 76.901 334.3494 77.084 334.1604 76.752 333.9704 76.49 332.8814 73.884 329.4084 69.229 328.3444 68.354 327.7934 68.153 327.4764 67.882 325.8194 64.957 324.0824 62.584 322.9714 62.724 321.1094 61.927 317.7414 60.332 314.0464 63.67 312.1784 64.852 310.8214 66.236 309.2904 68.179 308.6114 69.842 308.5324 70.244 308.2324 71.119 306.9534 73.823 306.5434 74.916 306.1114 76.612 304.4694 79.575 303.6644 80.048 301.5644 79.374 301.3754 81.681 301.6914 81.996 303.2854 82.948 306.1594 84.179 306.3954 84.669 306.6374 85.612 306.5434 86.537 307.0954 88.222 307.4744 90.116 312.9894 97.53 314.2204 100.101 314.0464 100.851 313.7794 101.783 310.9794 106.408 310.3474 107.096 305.4794 110.368 302.0694 108.045 299.7914 107.453 297.0764 107.462 295.9704 108.332 295.2594 109.054 291.8604 112.97 283.2304 119.622 288.3504 125.782 289.1244 126.485 290.1874 127.7 291.1194 129.15 290.6614 130.582 286.9774 134.226 284.2934 135.536 283.3094 137.244 286.8354 146.481 287.3244 146.879 288.0194 148.091 288.2874 148.386 288.7134 148.732 289.5244 148.957 290.1244 148.922 290.9454 148.394 291.5294 147.866 292.2394 147.684 293.8494 148.29 296.9974 150.463 297.8494 150.757 302.7644 150.697 303.1434 150.774 303.9324 152.064 305.4794 153.336 307.2524 155.135 308.0744 156.363 308.8954 158.585 309.0054 158.844 309.4164 159.026 310.0944 159.034 312.4684 158.3 313.1944 157.91 313.7314 157.435 313.9674 157.478 314.2844 157.686 314.7734 158.447 315.1684 158.87 315.7054 159.13 316.2894 159.06 317.1264 158.533 317.5674 158.049 318.3314 158.049 318.9464 158.161 323.1624 160.201 322.8614 155.221 323.0834 154.443 324.3504 153.093 329.3084 150.506 332.2814 149.97 333.6074 150.013 340.9594 153.387 341.5444 153.863 341.9214 154.322 341.8754 155.55 342.1274 156.942 343.2014 157.599 343.2724 157.643 345.1004 156.315 348.5104 155.256 358.1724 155.1 363.5724 156.735 368.5914 155.987 370.1284 156.635 373.7594 157.772 375.6124 154.192 376.3594 148.29 377.3064 130.183 378.1904 124.566 379.2264 121.657"></polygon>
                <polygon id="Stroke-27" stroke="#C1C1C1" stroke-linecap="round" stroke-linejoin="round" points="379.1904 121.595 378.6284 120.63 376.7804 118.336 375.7224 117.475 373.6964 116.771 375.8484 111.126 375.8964 110.456 375.7704 109.733 375.0544 109.568 370.0654 103.334 365.3084 96.885 361.3724 92.717 357.8304 88.991 355.9044 87.157 353.4894 84.774 349.0324 79.855 345.4594 76.018 344.8744 75.598 343.9114 75.074 341.1964 74.82 334.9024 76.901 334.3494 77.084 334.1604 76.752 333.9704 76.49 332.8814 73.884 329.4084 69.229 328.3444 68.354 327.7934 68.153 327.4764 67.882 325.8194 64.957 324.0824 62.584 322.9714 62.724 321.1094 61.927 317.7414 60.332 314.0464 63.67 312.1784 64.852 310.8214 66.236 309.2904 68.179 308.6114 69.842 308.5324 70.244 308.2324 71.119 306.9534 73.823 306.5434 74.916 306.1114 76.612 304.4694 79.575 303.6644 80.048 301.5644 79.374 301.3754 81.681 301.6914 81.996 303.2854 82.948 306.1594 84.179 306.3954 84.669 306.6374 85.612 306.5434 86.537 307.0954 88.222 307.4744 90.116 312.9894 97.53 314.2204 100.101 314.0464 100.851 313.7794 101.783 310.9794 106.408 310.3474 107.096 305.4794 110.368 302.0694 108.045 299.7914 107.453 297.0764 107.462 295.9704 108.332 295.2594 109.054 291.8604 112.97 283.2304 119.622 288.3504 125.782 289.1244 126.485 290.1874 127.7 291.1194 129.15 290.6614 130.582 286.9774 134.226 284.2934 135.536 283.3094 137.244 286.8354 146.481 287.3244 146.879 288.0194 148.091 288.2874 148.386 288.7134 148.732 289.5244 148.957 290.1244 148.922 290.9454 148.394 291.5294 147.866 292.2394 147.684 293.8494 148.29 296.9974 150.463 297.8494 150.757 302.7644 150.697 303.1434 150.774 303.9324 152.064 305.4794 153.336 307.2524 155.135 308.0744 156.363 308.8954 158.585 309.0054 158.844 309.4164 159.026 310.0944 159.034 312.4684 158.3 313.1944 157.91 313.7314 157.435 313.9674 157.478 314.2844 157.686 314.7734 158.447 315.1684 158.87 315.7054 159.13 316.2894 159.06 317.1264 158.533 317.5674 158.049 318.3314 158.049 318.9464 158.161 323.1624 160.201 322.8614 155.221 323.0834 154.443 324.3504 153.093 329.3084 150.506 332.2814 149.97 333.6074 150.013 340.9594 153.387 341.5444 153.863 341.9214 154.322 341.8754 155.55 342.1274 156.942 343.2014 157.599 343.2724 157.643 345.1004 156.315 348.5104 155.256 358.1724 155.1 363.5724 156.735 368.5914 155.987 370.1284 156.635 373.7594 157.772 375.6124 154.192 376.3594 148.29 377.3064 130.183 378.1904 124.566 379.2264 121.657"></polygon>
            </g>
        </g>
    </g>
</svg>